<svg width="52" height="62" viewBox="0 0 52 62" fill="none" xmlns="http://www.w3.org/2000/svg">
<path d="M9.75151 50.4529C13.1033 56.2432 19.2682 59.808 25.9799 59.808C34.6327 59.808 41.9131 53.9549 44.0619 46.0017H7.22266" stroke="#AF9162" stroke-width="3" stroke-linecap="round" stroke-linejoin="round"/>
<path d="M25.9805 45.1318C25.9805 37.8386 30.5597 34.3448 34.8301 32.3865" stroke="#AF9162" stroke-width="3" stroke-linecap="round" stroke-linejoin="round"/>
<path d="M50.2426 27.5698C44.5533 24.1332 36.1794 26.4433 34.5391 32.5201C40.581 36.1694 48.512 33.982 50.2426 27.5698Z" stroke="#AF9162" stroke-width="3" stroke-linecap="round" stroke-linejoin="round"/>
<path d="M25.9805 46.0016V11.6851" stroke="#AF9162" stroke-width="3" stroke-linecap="round" stroke-linejoin="round"/>
<path d="M25.979 41.8505C25.5635 38.1467 22.291 36.2593 19.8906 35.3374" stroke="#AF9162" stroke-width="3" stroke-linecap="round" stroke-linejoin="round"/>
<path d="M19.8148 35.3103C13.1906 40.686 4.6991 36.554 1.79297 29.2635C8.46094 25.1697 17.8491 26.8716 19.8148 35.3103Z" stroke="#AF9162" stroke-width="3" stroke-linecap="round" stroke-linejoin="round"/>
<path d="M35.8711 38.6294C39.0315 40.2686 42.8152 40.4268 46.238 39.4258" stroke="#AF9162" stroke-width="3" stroke-linecap="round" stroke-linejoin="round"/>
<path d="M25.9791 26.0341C27.6414 26.0341 29.227 25.6987 30.6678 25.0904C32.1085 24.4822 33.4071 23.6013 34.498 22.5158C35.5888 21.4275 36.4691 20.1347 37.0788 18.6946C37.6884 17.2573 38.0247 15.6754 38.0247 14.0171C38.0247 12.3588 37.6884 10.7769 37.0788 9.33952C36.4691 7.90216 35.5861 6.60664 34.498 5.51839C33.4099 4.43014 32.1113 3.55191 30.6678 2.94369C29.227 2.33547 27.6414 2 25.9791 2C24.3169 2 22.7313 2.33547 21.2905 2.94369C19.8497 3.55191 18.5511 4.43287 17.4603 5.51839C16.3695 6.60391 15.4892 7.89944 14.8795 9.33952C14.2699 10.7769 13.9336 12.3588 13.9336 14.0171C13.9336 15.6754 14.2699 17.2573 14.8795 18.6946C15.4892 20.132 16.3722 21.4275 17.4603 22.5158C18.5511 23.604 19.847 24.4822 21.2905 25.0904" stroke="#AF9162" stroke-width="3" stroke-linecap="round" stroke-linejoin="round"/>
<path d="M20.3691 15.539L25.9791 10.5696L31.5891 15.539" stroke="#AF9162" stroke-width="3" stroke-linecap="round" stroke-linejoin="round"/>
</svg>
