<svg width="20" height="20" viewBox="0 0 20 20" fill="none" xmlns="http://www.w3.org/2000/svg">
<path d="M0.666016 7.33335L0.375397 6.92649L0.166016 7.07605V7.33335H0.666016ZM9.99935 0.666687L10.29 0.25982C10.1161 0.135643 9.88258 0.135643 9.70873 0.25982L9.99935 0.666687ZM19.3327 7.33335H19.8327V7.07605L19.6233 6.92649L19.3327 7.33335ZM3.33268 11.3334V10.8334H2.83268V11.3334H3.33268ZM8.66602 11.3334H9.16602V10.8334H8.66602V11.3334ZM1.16602 20V7.33335H0.166016V20H1.16602ZM0.956635 7.74022L10.29 1.07355L9.70873 0.25982L0.375397 6.92649L0.956635 7.74022ZM9.70873 1.07355L19.0421 7.74022L19.6233 6.92649L10.29 0.25982L9.70873 1.07355ZM18.8327 7.33335V20H19.8327V7.33335H18.8327ZM3.83268 20V11.3334H2.83268V20H3.83268ZM3.33268 11.8334H8.66602V10.8334H3.33268V11.8334ZM8.16602 11.3334V20H9.16602V11.3334H8.16602ZM6.66602 15.8334H8.66602V14.8334H6.66602V15.8334ZM14.8327 10.6667V16H15.8327V10.6667H14.8327ZM17.4993 2.66669V6.00002H18.4993V2.66669H17.4993Z" fill="url(#paint0_linear_654_2821)"/>
<defs>
<linearGradient id="paint0_linear_654_2821" x1="0.666016" y1="0.666687" x2="18.9712" y2="19.3585" gradientUnits="userSpaceOnUse">
<stop stop-color="#A0BA4F"/>
<stop offset="1" stop-color="#7A8E3B"/>
</linearGradient>
</defs>
</svg>
