<svg width="211" height="59" viewBox="0 0 211 59" fill="none" xmlns="http://www.w3.org/2000/svg">
<g clip-path="url(#clip0_687_9588)">
<path fill-rule="evenodd" clip-rule="evenodd" d="M50.2042 37.5208L44.6461 37.539L43.8313 39.3122C43.7318 39.5214 43.5326 39.6487 43.2973 39.6487H42.6455C42.4373 39.6487 42.2653 39.5487 42.1567 39.3759C42.048 39.2031 42.0299 39.003 42.1205 38.8121L46.3117 29.7093C46.4112 29.5001 46.6104 29.3728 46.8458 29.3728H47.9954C48.2308 29.3728 48.4299 29.5001 48.5295 29.7093L52.7207 38.8121C52.8112 39.003 52.7931 39.2031 52.6845 39.3759C52.5759 39.5487 52.3948 39.6487 52.1957 39.6487H51.562C51.3266 39.6487 51.1275 39.5214 51.0279 39.3031L50.2132 37.5117H50.2042V37.5208ZM47.4251 31.4825L45.4336 35.8112H49.4076L47.4161 31.4825H47.4251Z" fill="white"/>
<path fill-rule="evenodd" clip-rule="evenodd" d="M33.494 37.539L37.0063 29.7184C37.1058 29.5001 37.305 29.3728 37.5404 29.3728H38.1921C38.4003 29.3728 38.5723 29.4728 38.6809 29.6456C38.7896 29.8184 38.8077 30.0185 38.7172 30.2094L34.5893 39.3122C34.4897 39.5305 34.2906 39.6578 34.0552 39.6578H32.9056C32.6702 39.6578 32.4711 39.5305 32.3715 39.3122L28.2436 30.2094C28.1622 30.0185 28.1712 29.8184 28.2799 29.6456C28.3885 29.4728 28.5695 29.3728 28.7687 29.3728H29.4204C29.6558 29.3728 29.855 29.5001 29.9545 29.7184L33.4849 37.5481H33.494V37.539Z" fill="white"/>
<path fill-rule="evenodd" clip-rule="evenodd" d="M14.8273 30.5186C15.8412 29.5001 17.4344 29.2637 18.8104 29.2637C20.1863 29.2637 21.7705 29.5001 22.7934 30.5186C23.8072 31.5371 24.0426 33.1376 24.0426 34.5198C24.0426 35.9021 23.8072 37.4935 22.7934 38.5211C21.7795 39.5396 20.1863 39.776 18.8104 39.776C17.4344 39.776 15.8503 39.5396 14.8273 38.5211C13.8135 37.5026 13.5781 35.9021 13.5781 34.5198C13.5781 33.1376 13.8135 31.5462 14.8273 30.5186ZM16.1852 31.8099C15.5153 32.4919 15.3795 33.6014 15.3795 34.5107C15.3795 35.4201 15.5244 36.5295 16.1852 37.2116C16.846 37.8845 17.9051 38.0391 18.8013 38.0391C19.6975 38.0391 20.7566 37.8845 21.4174 37.2116C22.0873 36.5295 22.2231 35.4201 22.2231 34.5107C22.2231 33.6014 22.0782 32.4919 21.4174 31.8099C20.7566 31.137 19.6975 30.9824 18.8013 30.9824C17.9051 30.9824 16.846 31.137 16.1852 31.8099Z" fill="white"/>
<path fill-rule="evenodd" clip-rule="evenodd" d="M4.7253 38.03C5.57622 38.03 7.17847 37.9209 7.17847 36.7933C7.17847 36.375 6.91596 36.1112 6.57197 35.9203C5.94736 35.5747 4.92445 35.4019 4.21837 35.2837C3.22262 35.12 1.7833 34.829 0.950491 34.2379C0.271569 33.7651 0 33.0557 0 32.2464C0 29.8093 2.19971 29.2819 4.17311 29.2637H7.83024C8.16517 29.2637 8.44579 29.5365 8.44579 29.882V30.3731C8.44579 30.7096 8.17422 30.9915 7.83024 30.9915H4.17311C3.38556 30.9824 1.7833 31.0551 1.7833 32.1646C1.7833 32.5465 2.00056 32.792 2.32644 32.9648C2.91484 33.274 3.89249 33.4377 4.54425 33.5559C5.59432 33.7378 7.08795 34.0561 7.96602 34.6653C8.66305 35.1564 8.95272 35.8657 8.95272 36.7023C8.95272 39.1758 6.7168 39.7305 4.7253 39.7669H0.90523C0.570295 39.7669 0.289674 39.4941 0.289674 39.1485V38.6575C0.289674 38.321 0.561242 38.0391 0.90523 38.0391H4.7253V38.03Z" fill="white"/>
<path fill-rule="evenodd" clip-rule="evenodd" d="M164.127 37.5481L167.603 29.8184C167.702 29.6092 167.902 29.4728 168.128 29.4728H168.771C168.97 29.4728 169.151 29.5638 169.259 29.7366C169.368 29.9093 169.386 30.1094 169.296 30.2913L165.213 39.294C165.113 39.5032 164.923 39.6305 164.688 39.6305H163.556C163.321 39.6305 163.131 39.5032 163.031 39.294L158.949 30.2913C158.867 30.1094 158.876 29.9093 158.985 29.7366C159.094 29.5638 159.266 29.4728 159.474 29.4728H160.117C160.352 29.4728 160.551 29.6001 160.642 29.8184L164.127 37.5481ZM152.16 36.8933V30.0548C152.16 29.7366 152.422 29.4728 152.739 29.4728H153.364C153.68 29.4728 153.943 29.7366 153.943 30.0548V39.0576C153.943 39.3759 153.68 39.6396 153.364 39.6396H152.513C152.341 39.6396 152.187 39.5669 152.069 39.4304L145.968 32.21V39.0485C145.968 39.3668 145.705 39.6305 145.388 39.6305H144.764C144.447 39.6305 144.184 39.3668 144.184 39.0485V30.0457C144.184 29.7275 144.447 29.4637 144.764 29.4637H145.615C145.787 29.4637 145.941 29.5365 146.058 29.6729L152.16 36.8933ZM134.499 38.0118V31.1006H133.086C132.652 31.1006 132.299 30.8369 132.299 30.5186V30.0548C132.299 29.7366 132.652 29.4728 133.086 29.4728H137.694C138.129 29.4728 138.482 29.7366 138.482 30.0548V30.5186C138.482 30.8369 138.129 31.1006 137.694 31.1006H136.282V38.0118H137.694C138.129 38.0118 138.482 38.2755 138.482 38.5938V39.0576C138.482 39.3759 138.129 39.6396 137.694 39.6396H133.086C132.652 39.6396 132.299 39.3759 132.299 39.0576V38.5938C132.299 38.2755 132.652 38.0118 133.086 38.0118H134.499ZM176.909 31.1825V33.7469H182.548C182.865 33.7469 183.127 34.0106 183.127 34.3289V34.7927C183.127 35.1109 182.865 35.3747 182.548 35.3747H176.909V37.9391H183.49C183.806 37.9391 184.069 38.2028 184.069 38.5211V39.0667C184.069 39.385 183.806 39.6487 183.49 39.6487H175.705C175.388 39.6487 175.125 39.385 175.125 39.0667V35.3747H173.903C173.586 35.3747 173.324 35.1109 173.324 34.7927V34.3289C173.324 34.0106 173.586 33.7469 173.903 33.7469H175.125V30.0548C175.125 29.7366 175.388 29.4728 175.705 29.4728H181.598C181.914 29.4728 182.177 29.7366 182.177 30.0548V30.6005C182.177 30.9187 181.914 31.1825 181.598 31.1825H176.909ZM193.022 38.03C193.864 38.03 195.448 37.9209 195.448 36.8024C195.448 36.3932 195.185 36.1294 194.85 35.9385C194.235 35.602 193.221 35.4292 192.524 35.311C191.537 35.1473 190.116 34.8563 189.301 34.2834C188.631 33.8105 188.369 33.1194 188.369 32.3192C188.369 29.9093 190.541 29.391 192.488 29.3728H196.099C196.434 29.3728 196.706 29.6456 196.706 29.9821V30.464C196.706 30.8005 196.434 31.0733 196.099 31.0733H192.488C191.709 31.0642 190.125 31.137 190.125 32.2282C190.125 32.6011 190.342 32.8466 190.659 33.0194C191.238 33.3286 192.207 33.4832 192.85 33.6014C193.882 33.7833 195.366 34.0924 196.226 34.6926C196.923 35.1746 197.204 35.8839 197.204 36.7114C197.204 39.1576 194.995 39.7033 193.022 39.7396H189.247C188.912 39.7396 188.64 39.4668 188.64 39.1304V38.6484C188.64 38.3119 188.912 38.0391 189.247 38.0391H193.022V38.03ZM206.89 31.1734V39.0485C206.89 39.3668 206.627 39.6305 206.31 39.6305H205.686C205.369 39.6305 205.106 39.3668 205.106 39.0485V31.1734H201.576C201.259 31.1734 200.997 30.9096 200.997 30.5914V30.0457C200.997 29.7275 201.259 29.4637 201.576 29.4637H210.42C210.737 29.4637 211 29.7275 211 30.0457V30.5914C211 30.9096 210.737 31.1734 210.42 31.1734H206.89Z" fill="white"/>
<path d="M101.838 30.6006C101.856 30.6551 101.875 30.7006 101.884 30.7461C102.608 31.1189 103.359 31.4099 104.12 31.6191C106.183 32.1738 108.302 32.1101 110.157 31.4736C111.986 30.8461 113.552 29.673 114.557 28.018C114.819 27.5815 115.046 27.1086 115.227 26.5903C114.593 26.2629 113.923 26.0083 113.235 25.8264C111.153 25.2626 108.926 25.3535 106.962 26.0174C105.025 26.6721 103.359 27.8725 102.354 29.5275C102.155 29.864 101.974 30.2187 101.829 30.6006M83.082 34.8019C83.8424 34.5018 84.5937 34.0744 85.336 33.5288C85.0735 32.583 84.6933 31.7282 84.2407 30.9825C83.082 29.1001 81.3801 27.8361 79.4158 27.1723C77.4243 26.4993 75.1703 26.4266 72.9796 26.9449C71.83 27.2086 70.6984 27.6451 69.6303 28.2271C70.11 29.2638 70.7075 30.2277 71.4045 31.0916C72.8619 32.9013 74.7448 34.2472 76.7906 34.9383C78.8093 35.6112 80.9909 35.6385 83.082 34.8019ZM101.703 37.9119C101.286 37.6937 101.123 37.1844 101.34 36.7661C101.558 36.3478 102.065 36.1841 102.481 36.4024C103.893 37.139 105.441 37.5573 107.025 37.6755C108.709 37.8028 110.429 37.6118 112.058 37.1299C112.511 37.0026 112.973 37.2572 113.108 37.7119C113.235 38.1666 112.982 38.6303 112.529 38.7667C110.701 39.3033 108.781 39.5215 106.899 39.376C105.088 39.2396 103.314 38.7576 101.693 37.9119H101.703ZM75.65 49.2973C75.4147 48.888 75.5505 48.3697 75.9578 48.1333C76.3652 47.8968 76.8811 48.0332 77.1165 48.4424C78.6916 51.1797 80.9275 53.3985 83.5617 54.9263C86.1869 56.4449 89.2104 57.2906 92.3606 57.2906C96.3798 57.2906 100.082 55.9357 103.042 53.6622C105.785 51.5525 107.885 48.6607 109.017 45.3142H73.9029C73.4322 45.3142 73.052 44.9323 73.052 44.4594C73.052 43.9865 73.4322 43.6046 73.9029 43.6046H91.5187V40.3763C91.3286 38.8122 90.5411 37.6118 89.5363 36.7116C88.5858 35.8568 87.4542 35.2475 86.4404 34.8292C85.5623 35.493 84.648 36.0113 83.7156 36.3751C81.2263 37.3663 78.6463 37.339 76.2656 36.5479C73.912 35.7567 71.7666 34.2108 70.101 32.1647C69.1505 30.9916 68.3539 29.6457 67.7745 28.1817C67.6206 27.7906 67.7745 27.3541 68.1185 27.145C69.5216 26.272 71.0515 25.6536 72.6085 25.2899C75.0978 24.7079 77.6687 24.7897 79.9589 25.5627C82.2854 26.3538 84.3131 27.8452 85.689 30.0913C86.2503 31.0098 86.7029 32.0556 87.0197 33.2287C88.2056 33.7197 89.5453 34.429 90.6768 35.4475C90.9756 35.7203 91.2652 36.0113 91.5278 36.3296V11.2401L87.418 14.9048C87.065 15.214 86.5309 15.1867 86.2231 14.8321C85.9153 14.4774 85.9425 13.9409 86.2955 13.6317L91.8174 8.71202C92.1433 8.42102 92.6321 8.43011 92.9399 8.71202L98.4528 13.6317C98.8058 13.9409 98.833 14.4774 98.5252 14.8321C98.2174 15.1867 97.6833 15.214 97.3303 14.9048L93.2205 11.2401V23.7894C93.6822 23.753 94.1348 23.6894 94.5693 23.6075C95.2935 23.462 95.9996 23.2438 96.6604 22.9528C97.3031 22.68 97.9277 22.3344 98.5161 21.9343C99.1045 21.5342 99.6477 21.0795 100.155 20.5793C100.662 20.0792 101.114 19.5244 101.503 18.9334C101.902 18.3423 102.237 17.7148 102.517 17.0691C102.798 16.3962 103.015 15.696 103.169 14.9685C103.314 14.2683 103.386 13.5317 103.386 12.7678C103.386 12.0039 103.314 11.2674 103.169 10.5671C103.024 9.83964 102.807 9.13943 102.517 8.46649C102.246 7.82084 101.902 7.19337 101.503 6.60228C101.105 6.01119 100.652 5.46556 100.155 4.95632C99.6477 4.45616 99.1045 3.99238 98.5161 3.60135C97.9277 3.20123 97.3031 2.86476 96.6604 2.58286C95.9905 2.30095 95.2935 2.0827 94.5693 1.92811C93.8723 1.78261 93.1391 1.70986 92.3787 1.70986C91.6183 1.70986 90.885 1.78261 90.188 1.92811C89.4638 2.07361 88.7668 2.29186 88.0969 2.58286C87.4542 2.85567 86.8296 3.20123 86.2412 3.60135C85.6528 4.00148 85.1097 4.45616 84.6028 4.95632C84.0958 5.46556 83.6432 6.01119 83.254 6.60228C82.8557 7.19337 82.5207 7.82084 82.2401 8.46649C81.9595 9.13943 81.7422 9.83964 81.5883 10.5671C81.4435 11.2674 81.3711 12.0039 81.3711 12.7678C81.3711 13.5317 81.4435 14.2683 81.5883 14.9685C81.7332 15.696 81.9504 16.3962 82.2401 17.0691C82.5117 17.7148 82.8557 18.3423 83.254 18.9334C83.6523 19.5244 84.1049 20.0701 84.6028 20.5793C85.1006 21.0886 85.6528 21.5432 86.2412 21.9343C86.8296 22.3344 87.4542 22.68 88.0969 22.9528C88.5315 23.1346 88.7306 23.6348 88.5496 24.0622C88.3685 24.4896 87.8706 24.6988 87.4452 24.5169C86.6848 24.1895 85.9606 23.7985 85.2907 23.3529C84.6118 22.8891 83.9781 22.3708 83.3988 21.7888C82.8195 21.2068 82.3035 20.5793 81.8418 19.8882C81.3892 19.2153 80.9999 18.4969 80.6831 17.7239C80.3572 16.9509 80.1038 16.1416 79.9318 15.2959C79.7688 14.4683 79.6783 13.6135 79.6783 12.7587C79.6783 11.9039 79.7688 11.0491 79.9318 10.2216C80.1038 9.37586 80.3572 8.56652 80.6831 7.79356C81.009 7.02968 81.3982 6.30219 81.8418 5.62925C82.3035 4.94722 82.8195 4.31066 83.3988 3.72867C83.9781 3.14667 84.6028 2.62833 85.2907 2.16455C85.9606 1.70986 86.6757 1.31883 87.4452 1.00055C88.2146 0.673179 89.0203 0.418555 89.8621 0.254868C90.6859 0.0911813 91.5368 0.000244141 92.3877 0.000244141C93.2386 0.000244141 94.0896 0.0911813 94.9133 0.254868C95.7552 0.427649 96.5608 0.682273 97.3303 1.00055C98.0907 1.32793 98.8149 1.71896 99.4847 2.16455C100.164 2.62833 100.797 3.14667 101.377 3.72867C101.956 4.30157 102.472 4.93813 102.934 5.62925C103.386 6.30219 103.776 7.02059 104.092 7.79356C104.418 8.56652 104.672 9.37586 104.835 10.2216C104.998 11.0491 105.088 11.9039 105.088 12.7587C105.088 13.6135 104.998 14.4683 104.835 15.2959C104.663 16.1416 104.409 16.9509 104.092 17.7239C103.766 18.4878 103.377 19.2153 102.934 19.8882C102.472 20.5702 101.956 21.2068 101.377 21.7888C100.797 22.3617 100.173 22.8891 99.4847 23.3529C98.8149 23.8076 98.0997 24.1986 97.3303 24.5169C96.5608 24.8443 95.7552 25.0989 94.9133 25.2626C94.3611 25.3717 93.7999 25.4535 93.2386 25.4899V36.6206C93.6188 35.9477 94.0443 35.3202 94.515 34.7564C96.0901 32.8285 98.1088 31.4918 100.109 30.5006C100.318 29.8458 100.598 29.2274 100.951 28.6545C102.173 26.6266 104.165 25.1807 106.464 24.4078C108.736 23.6439 111.307 23.5348 113.706 24.1895C114.72 24.4623 115.716 24.8806 116.648 25.4354C117.001 25.6081 117.2 26.0174 117.091 26.4175C116.847 27.3178 116.494 28.1544 116.041 28.9001C114.828 30.9189 112.936 32.3375 110.746 33.0832C108.582 33.8198 106.12 33.9107 103.73 33.265C102.735 32.9922 101.748 32.5921 100.788 32.0647C99.005 32.9559 97.2126 34.1562 95.8276 35.8386C94.2887 37.7119 93.2477 40.2035 93.2477 43.5955H110.194C110.266 43.6046 110.338 43.6137 110.411 43.6319C110.863 43.7501 111.135 44.223 111.008 44.6777C109.886 48.8517 107.415 52.4619 104.101 55.0172C100.852 57.5089 96.7962 59.0002 92.3968 59.0002C88.9479 59.0002 85.6347 58.0727 82.7561 56.3994C79.8684 54.7262 77.4243 52.2982 75.6953 49.2973H75.65Z" fill="white"/>
</g>
<defs>
<clipPath id="clip0_687_9588">
<rect width="211" height="59" fill="white"/>
</clipPath>
</defs>
</svg>
