<svg width="90" height="10" viewBox="0 0 90 10" fill="none" xmlns="http://www.w3.org/2000/svg">
<path d="M78.2171 1.48083C77.4991 0.990614 76.6625 0.733551 75.7962 0.733551H74.5679C73.7016 0.733551 72.8649 0.993604 72.1469 1.48083C70.9454 2.29984 70.2303 3.65391 70.2303 5.10363C70.2303 6.55335 70.9483 7.90741 72.1469 8.72643C72.8649 9.21664 73.7016 9.47371 74.5679 9.47371H75.7962C76.6625 9.47371 77.4991 9.21365 78.2171 8.72643C79.4187 7.90741 80.1337 6.55335 80.1337 5.10363C80.1337 3.65391 79.4157 2.29686 78.2171 1.48083ZM77.8552 5.10363C77.8552 6.40688 76.9325 7.46801 75.7962 7.46801H74.5679C73.4316 7.46801 72.5089 6.40688 72.5089 5.10363C72.5089 3.80038 73.4316 2.73924 74.5679 2.73924H75.7962C76.9325 2.73924 77.8552 3.80038 77.8552 5.10363Z" fill="white"/>
<path d="M32.3054 4.10228H26.4103V0.733551H24.1317V9.4767H26.4103V6.10797H32.3054V9.4767H34.5869V0.733551H32.3054V4.10228Z" fill="white"/>
<path d="M47.2131 0.733551L45.0622 4.10228H44.0119L44.0089 0.733551H41.7215V4.10228H40.6771L38.5202 0.733551H35.8026L38.63 5.10363L35.8026 9.4767H38.5202L40.6742 6.10797H41.7215L41.7244 9.4767H44.0119V6.10797H45.0592L47.2131 9.4767H49.9308L47.1033 5.10363L49.9308 0.733551H47.2131Z" fill="white"/>
<path d="M89.3224 0.733551H86.6018L84.4509 4.10228H83.3917V0.733551H81.1132V9.4767H83.3917V6.10797H84.4479L86.6018 9.4767H89.3224L86.4921 5.10363L89.3224 0.733551Z" fill="white"/>
<path d="M51.2361 9.4767H59.1042V7.46503L53.5146 7.46801V6.10797H57.7958V4.10228H53.5146V2.73924L59.1042 2.74522V0.733551H51.2361V9.4767Z" fill="white"/>
<path d="M15.984 0.733551L16.7406 2.06968L12.495 9.4767H14.7943L15.6013 8.06584H20.1317L20.9298 9.4767H23.499L18.5058 0.733551H15.981H15.984ZM16.7673 6.03623L17.8828 4.08733L18.9865 6.03623H16.7673Z" fill="white"/>
<path d="M66.8882 0.733551H60.6786V9.4767H62.9601V6.10797H66.8912C68.3568 6.10797 69.5554 4.90336 69.5584 3.42076C69.5584 1.93816 68.3627 0.733551 66.8912 0.733551H66.8882ZM62.9571 4.10228V2.74223H66.6153C66.9802 2.7512 67.2264 3.0531 67.2264 3.42375C67.2264 3.77646 66.9564 4.06641 66.6153 4.09929L62.9571 4.10527V4.10228Z" fill="white"/>
<path d="M10.543 0.736603L6.21137 4.53277L1.87977 0.736603H0.553589V9.47975H2.83213V4.45505L6.21137 7.41427L9.59062 4.45505V9.47975H11.8692V0.736603H10.543Z" fill="white"/>
</svg>
