<svg width="153" height="35" viewBox="0 0 153 35" fill="none" xmlns="http://www.w3.org/2000/svg">
<path fill-rule="evenodd" clip-rule="evenodd" d="M77.8711 19.8742L73.5669 19.8882L72.936 21.2552C72.8589 21.4164 72.7046 21.5146 72.5224 21.5146H72.0176C71.8564 21.5146 71.7232 21.4375 71.6391 21.3043C71.555 21.1711 71.5409 21.0169 71.611 20.8697L74.8567 13.8525C74.9338 13.6913 75.0881 13.5932 75.2703 13.5932H76.1606C76.3429 13.5932 76.4971 13.6913 76.5742 13.8525L79.8199 20.8697C79.89 21.0169 79.876 21.1711 79.7919 21.3043C79.7077 21.4375 79.5675 21.5146 79.4133 21.5146H78.9226C78.7403 21.5146 78.5861 21.4164 78.509 21.2482L77.8781 19.8672L77.8711 19.8742ZM75.719 15.2125L74.1768 18.5493H77.2542L75.712 15.2125H75.719Z" fill="white"/>
<path fill-rule="evenodd" clip-rule="evenodd" d="M64.9377 19.8882L67.6576 13.8595C67.7347 13.6913 67.8889 13.5932 68.0712 13.5932H68.5759C68.7372 13.5932 68.8704 13.6703 68.9545 13.8035C69.0386 13.9366 69.0526 14.0909 68.9825 14.2381L65.7859 21.2552C65.7088 21.4235 65.5546 21.5216 65.3723 21.5216H64.482C64.2998 21.5216 64.1455 21.4235 64.0684 21.2552L60.8718 14.2381C60.8087 14.0909 60.8157 13.9366 60.8998 13.8035C60.984 13.6703 61.1242 13.5932 61.2784 13.5932H61.7831C61.9654 13.5932 62.1196 13.6913 62.1967 13.8595L64.9307 19.8952L64.9377 19.8882Z" fill="white"/>
<path fill-rule="evenodd" clip-rule="evenodd" d="M50.4825 14.4762C51.2677 13.691 52.5014 13.5088 53.567 13.5088C54.6325 13.5088 55.8593 13.691 56.6514 14.4762C57.4366 15.2613 57.6188 16.4951 57.6188 17.5606C57.6188 18.6262 57.4366 19.8529 56.6514 20.6451C55.8663 21.4302 54.6325 21.6125 53.567 21.6125C52.5014 21.6125 51.2747 21.4302 50.4825 20.6451C49.6974 19.86 49.5151 18.6262 49.5151 17.5606C49.5151 16.4951 49.6974 15.2683 50.4825 14.4762ZM51.5341 15.4716C51.0153 15.9974 50.9102 16.8526 50.9102 17.5536C50.9102 18.2546 51.0223 19.1099 51.5341 19.6356C52.0458 20.1544 52.866 20.2736 53.56 20.2736C54.254 20.2736 55.0742 20.1544 55.5859 19.6356C56.1047 19.1099 56.2098 18.2546 56.2098 17.5536C56.2098 16.8526 56.0976 15.9974 55.5859 15.4716C55.0742 14.9529 54.254 14.8337 53.56 14.8337C52.866 14.8337 52.0458 14.9529 51.5341 15.4716Z" fill="white"/>
<path fill-rule="evenodd" clip-rule="evenodd" d="M42.6593 20.2665C43.3182 20.2665 44.559 20.1824 44.559 19.3132C44.559 18.9907 44.3557 18.7874 44.0893 18.6402C43.6056 18.3738 42.8135 18.2406 42.2667 18.1495C41.4956 18.0233 40.381 17.799 39.7361 17.3433C39.2103 16.9788 39 16.432 39 15.8081C39 13.9294 40.7035 13.5228 42.2317 13.5088H45.0638C45.3231 13.5088 45.5404 13.7191 45.5404 13.9855V14.364C45.5404 14.6234 45.3301 14.8407 45.0638 14.8407H42.2387C41.6288 14.8337 40.388 14.8898 40.388 15.745C40.388 16.0394 40.5562 16.2287 40.8086 16.3619C41.2643 16.6003 42.0214 16.7264 42.5261 16.8176C43.3393 16.9578 44.4959 17.2031 45.1759 17.6728C45.7157 18.0513 45.94 18.5981 45.94 19.2431C45.94 21.1498 44.2085 21.5774 42.6663 21.6055H39.708C39.4486 21.6055 39.2313 21.3952 39.2313 21.1288V20.7502C39.2313 20.4909 39.4416 20.2736 39.708 20.2736H42.6593V20.2665Z" fill="white"/>
<path fill-rule="evenodd" clip-rule="evenodd" d="M115.706 19.8952L118.398 13.9366C118.475 13.7754 118.63 13.6703 118.805 13.6703H119.303C119.457 13.6703 119.597 13.7404 119.681 13.8736C119.765 14.0067 119.779 14.161 119.709 14.3012L116.548 21.2412C116.471 21.4024 116.323 21.5006 116.141 21.5006H115.265C115.083 21.5006 114.935 21.4024 114.858 21.2412L111.697 14.3012C111.634 14.161 111.641 14.0067 111.725 13.8736C111.809 13.7404 111.942 13.6703 112.103 13.6703H112.601C112.783 13.6703 112.937 13.7684 113.008 13.9366L115.706 19.8952ZM106.439 19.3905V14.1189C106.439 13.8736 106.642 13.6703 106.888 13.6703H107.371C107.617 13.6703 107.82 13.8736 107.82 14.1189V21.0589C107.82 21.3043 107.617 21.5076 107.371 21.5076H106.712C106.579 21.5076 106.46 21.4515 106.369 21.3463L101.644 15.7803V21.0519C101.644 21.2973 101.441 21.5006 101.195 21.5006H100.712C100.466 21.5006 100.263 21.2973 100.263 21.0519V14.1119C100.263 13.8665 100.466 13.6633 100.712 13.6633H101.371C101.504 13.6633 101.623 13.7193 101.714 13.8245L106.439 19.3905ZM92.7623 20.2528V14.9251H91.6687C91.3322 14.9251 91.0588 14.7218 91.0588 14.4764V14.1189C91.0588 13.8736 91.3322 13.6703 91.6687 13.6703H95.2369C95.5733 13.6703 95.8468 13.8736 95.8468 14.1189V14.4764C95.8468 14.7218 95.5733 14.9251 95.2369 14.9251H94.1433V20.2528H95.2369C95.5733 20.2528 95.8468 20.4561 95.8468 20.7014V21.0589C95.8468 21.3043 95.5733 21.5076 95.2369 21.5076H91.6687C91.3322 21.5076 91.0588 21.3043 91.0588 21.0589V20.7014C91.0588 20.4561 91.3322 20.2528 91.6687 20.2528H92.7623ZM125.605 14.9882V16.965H129.972C130.217 16.965 130.421 17.1683 130.421 17.4137V17.7712C130.421 18.0165 130.217 18.2198 129.972 18.2198H125.605V20.1967H130.701C130.946 20.1967 131.15 20.4 131.15 20.6453V21.0659C131.15 21.3113 130.946 21.5146 130.701 21.5146H124.672C124.427 21.5146 124.224 21.3113 124.224 21.0659V18.2198H123.277C123.032 18.2198 122.829 18.0165 122.829 17.7712V17.4137C122.829 17.1683 123.032 16.965 123.277 16.965H124.224V14.1189C124.224 13.8736 124.427 13.6703 124.672 13.6703H129.236C129.481 13.6703 129.685 13.8736 129.685 14.1189V14.5395C129.685 14.7849 129.481 14.9882 129.236 14.9882H125.605ZM138.083 20.2668C138.735 20.2668 139.961 20.1827 139.961 19.3204C139.961 19.005 139.758 18.8017 139.499 18.6545C139.022 18.3951 138.237 18.2619 137.697 18.1708C136.933 18.0446 135.832 17.8203 135.202 17.3786C134.683 17.0141 134.48 16.4813 134.48 15.8644C134.48 14.0067 136.162 13.6072 137.669 13.5932H140.466C140.726 13.5932 140.936 13.8035 140.936 14.0628V14.4344C140.936 14.6937 140.726 14.904 140.466 14.904H137.669C137.066 14.897 135.839 14.9531 135.839 15.7943C135.839 16.0817 136.008 16.271 136.253 16.4042C136.702 16.6426 137.452 16.7617 137.95 16.8529C138.749 16.9931 139.898 17.2314 140.564 17.6941C141.104 18.0656 141.321 18.6124 141.321 19.2503C141.321 21.136 139.611 21.5566 138.083 21.5847H135.16C134.9 21.5847 134.69 21.3744 134.69 21.115V20.7435C134.69 20.4841 134.9 20.2738 135.16 20.2738H138.083V20.2668ZM148.822 14.9882V21.0589C148.822 21.3043 148.619 21.5076 148.374 21.5076H147.89C147.645 21.5076 147.441 21.3043 147.441 21.0589V14.9882H144.707C144.462 14.9882 144.259 14.7849 144.259 14.5395V14.1189C144.259 13.8736 144.462 13.6703 144.707 13.6703H151.556C151.802 13.6703 152.005 13.8736 152.005 14.1189V14.5395C152.005 14.7849 151.802 14.9882 151.556 14.9882H148.822Z" fill="white"/>
<path d="M20.0295 17.885C20.0401 17.9169 20.0507 17.9434 20.056 17.97C20.4811 18.1879 20.9221 18.3579 21.3684 18.4801C22.5799 18.8042 23.8232 18.767 24.9125 18.3951C25.9858 18.0285 26.905 17.343 27.4948 16.376C27.6489 16.1209 27.7818 15.8446 27.888 15.5418C27.5161 15.3505 27.1229 15.2017 26.7191 15.0954C25.497 14.766 24.1899 14.8191 23.0369 15.207C21.8998 15.5896 20.9221 16.291 20.3323 17.258C20.2154 17.4546 20.1092 17.6618 20.0242 17.885M9.02004 20.3398C9.46637 20.1645 9.90738 19.9147 10.3431 19.5959C10.189 19.0433 9.96583 18.5439 9.70016 18.1082C9.02004 17.0083 8.02112 16.2697 6.8681 15.8818C5.69915 15.4886 4.37611 15.4461 3.09026 15.749C2.41545 15.9031 1.75128 16.1581 1.12429 16.4982C1.4059 17.1039 1.75659 17.6671 2.16572 18.1719C3.02118 19.2293 4.12638 20.0157 5.32721 20.4195C6.5121 20.8127 7.79264 20.8286 9.02004 20.3398ZM19.9498 22.157C19.7053 22.0295 19.6097 21.7319 19.7372 21.4875C19.8647 21.2431 20.1623 21.1474 20.4067 21.275C21.2356 21.7053 22.1442 21.9498 23.0741 22.0188C24.0624 22.0932 25.0719 21.9816 26.0283 21.7C26.294 21.6256 26.565 21.7744 26.6447 22.0401C26.7191 22.3058 26.5703 22.5767 26.3046 22.6565C25.2313 22.9699 24.1049 23.0975 22.9997 23.0125C21.937 22.9328 20.8956 22.6511 19.9444 22.157H19.9498ZM4.65772 28.8094C4.51957 28.5703 4.59927 28.2674 4.83838 28.1293C5.07748 27.9911 5.38034 28.0708 5.51849 28.3099C6.44303 29.9093 7.75545 31.2058 9.30165 32.0984C10.8425 32.9858 12.6172 33.4799 14.4663 33.4799C16.8255 33.4799 18.9987 32.6882 20.7361 31.3598C22.3461 30.1271 23.5788 28.4375 24.243 26.4821H3.63223C3.35593 26.4821 3.13277 26.259 3.13277 25.9827C3.13277 25.7064 3.35593 25.4832 3.63223 25.4832H13.9722V23.5969C13.8606 22.683 13.3983 21.9816 12.8085 21.4556C12.2506 20.9562 11.5864 20.6002 10.9913 20.3557C10.4759 20.7436 9.93927 21.0465 9.39198 21.259C7.93079 21.8382 6.41647 21.8222 5.01903 21.36C3.63754 20.8977 2.37826 19.9944 1.40059 18.7989C0.842678 18.1135 0.375097 17.3271 0.0350377 16.4716C-0.0552906 16.2431 0.0350402 15.9881 0.23695 15.8659C1.06053 15.3558 1.9585 14.9945 2.87241 14.782C4.3336 14.4419 5.84261 14.4897 7.18691 14.9414C8.55246 15.4036 9.74267 16.275 10.5503 17.5874C10.8797 18.1241 11.1454 18.7351 11.3314 19.4206C12.0274 19.7075 12.8138 20.1219 13.478 20.7171C13.6534 20.8765 13.8234 21.0465 13.9775 21.2325V6.5674L11.5652 8.70871C11.358 8.88936 11.0445 8.87342 10.8638 8.6662C10.6831 8.45897 10.6991 8.14548 10.9063 7.96483L14.1475 5.09026C14.3388 4.92023 14.6257 4.92555 14.8064 5.09026L18.0422 7.96483C18.2495 8.14548 18.2654 8.45897 18.0847 8.6662C17.9041 8.87342 17.5906 8.88936 17.3834 8.70871L14.9711 6.5674V13.8999C15.2421 13.8787 15.5077 13.8415 15.7628 13.7937C16.1879 13.7086 16.6023 13.5811 16.9902 13.4111C17.3674 13.2517 17.7341 13.0498 18.0794 12.816C18.4248 12.5822 18.7436 12.3165 19.0412 12.0243C19.3387 11.732 19.6044 11.4079 19.8329 11.0626C20.0667 10.7172 20.2633 10.3506 20.428 9.9733C20.5927 9.58011 20.7202 9.17097 20.8105 8.7459C20.8955 8.33677 20.9381 7.90638 20.9381 7.46005C20.9381 7.01372 20.8955 6.58334 20.8105 6.1742C20.7255 5.74913 20.598 5.33999 20.428 4.9468C20.2686 4.56955 20.0667 4.20292 19.8329 3.85755C19.5991 3.51218 19.3334 3.19337 19.0412 2.89582C18.7436 2.60358 18.4248 2.33259 18.0794 2.10412C17.7341 1.87033 17.3674 1.67373 16.9902 1.50901C16.597 1.3443 16.1879 1.21677 15.7628 1.12645C15.3536 1.04143 14.9233 0.998924 14.4769 0.998924C14.0306 0.998924 13.6002 1.04143 13.1911 1.12645C12.766 1.21146 12.3569 1.33898 11.9637 1.50901C11.5864 1.66842 11.2198 1.87033 10.8744 2.10412C10.5291 2.33791 10.2103 2.60358 9.9127 2.89582C9.61515 3.19337 9.34947 3.51218 9.121 3.85755C8.88721 4.20292 8.69061 4.56955 8.5259 4.9468C8.36118 5.33999 8.23366 5.74913 8.14333 6.1742C8.05831 6.58334 8.01581 7.01372 8.01581 7.46005C8.01581 7.90638 8.05831 8.33677 8.14333 8.7459C8.22834 9.17097 8.35587 9.58011 8.5259 9.9733C8.6853 10.3506 8.88721 10.7172 9.121 11.0626C9.35479 11.4079 9.62046 11.7267 9.9127 12.0243C10.2049 12.3218 10.5291 12.5875 10.8744 12.816C11.2198 13.0498 11.5864 13.2517 11.9637 13.4111C12.2187 13.5174 12.3356 13.8096 12.2294 14.0593C12.1231 14.3091 11.8308 14.4313 11.5811 14.325C11.1348 14.1337 10.7097 13.9052 10.3165 13.6449C9.91801 13.3739 9.54607 13.071 9.20601 12.731C8.86595 12.3909 8.56309 12.0243 8.2921 11.6205C8.02643 11.2273 7.79796 10.8075 7.61199 10.3559C7.4207 9.90423 7.27193 9.43133 7.17097 8.93718C7.07533 8.45366 7.02219 7.9542 7.02219 7.45474C7.02219 6.95528 7.07533 6.45581 7.17097 5.97229C7.27193 5.47814 7.4207 5.00525 7.61199 4.55361C7.80327 4.10728 8.03175 3.6822 8.2921 3.28901C8.56309 2.8905 8.86595 2.51856 9.20601 2.1785C9.54607 1.83845 9.9127 1.53558 10.3165 1.2646C10.7097 0.998924 11.1295 0.770447 11.5811 0.584477C12.0328 0.393194 12.5057 0.244418 12.9998 0.148776C13.4833 0.0531343 13.9828 0 14.4822 0C14.9817 0 15.4812 0.0531343 15.9647 0.148776C16.4588 0.249731 16.9317 0.398507 17.3834 0.584477C17.8297 0.77576 18.2548 1.00424 18.648 1.2646C19.0465 1.53558 19.4184 1.83845 19.7585 2.1785C20.0985 2.51325 20.4014 2.88519 20.6724 3.28901C20.9381 3.6822 21.1665 4.10197 21.3525 4.55361C21.5438 5.00525 21.6926 5.47814 21.7882 5.97229C21.8839 6.45581 21.937 6.95528 21.937 7.45474C21.937 7.9542 21.8839 8.45366 21.7882 8.93718C21.6873 9.43133 21.5385 9.90423 21.3525 10.3559C21.1612 10.8022 20.9327 11.2273 20.6724 11.6205C20.4014 12.019 20.0985 12.3909 19.7585 12.731C19.4184 13.0657 19.0518 13.3739 18.648 13.6449C18.2548 13.9106 17.835 14.139 17.3834 14.325C16.9317 14.5163 16.4588 14.6651 15.9647 14.7607C15.6406 14.8245 15.3111 14.8723 14.9817 14.8935V21.3972C15.2049 21.004 15.4546 20.6374 15.7309 20.3079C16.6554 19.1815 17.8403 18.4004 19.0146 17.8212C19.1368 17.4387 19.3015 17.0774 19.5087 16.7426C20.2261 15.5577 21.395 14.7129 22.7446 14.2612C24.0783 13.8149 25.5873 13.7511 26.9954 14.1337C27.5905 14.2931 28.1749 14.5375 28.7222 14.8617C28.9295 14.9626 29.0464 15.2017 28.9826 15.4355C28.8391 15.9615 28.6319 16.4504 28.3662 16.8861C27.6542 18.0657 26.5437 18.8945 25.2579 19.3302C23.988 19.7606 22.5427 19.8138 21.14 19.4365C20.5555 19.2771 19.9763 19.0433 19.4131 18.7351C18.3664 19.2559 17.3143 19.9572 16.5013 20.9402C15.5981 22.0348 14.987 23.4907 14.987 25.4726L24.9338 25.4779C24.9763 25.4779 25.0188 25.4832 25.0613 25.4938C25.3269 25.5629 25.4864 25.8392 25.412 26.1049C24.7531 28.5437 23.3025 30.6532 21.3578 32.1462C19.4503 33.6021 17.0699 34.4735 14.4876 34.4735C12.4631 34.4735 10.5184 33.9315 8.82876 32.9539C7.13378 31.9762 5.69915 30.5575 4.68429 28.8041L4.65772 28.8094Z" fill="white"/>
</svg>
