<svg width="52" height="52" viewBox="0 0 52 52" fill="none" xmlns="http://www.w3.org/2000/svg">
<circle cx="26" cy="26" r="25" fill="url(#paint0_linear_327_1971)" stroke="url(#paint1_linear_327_1971)"/>
<path d="M26.429 17.2048H25.175V35.2337H26.429V17.2048Z" fill="white"/>
<path d="M19.5354 34.606V35.2337H18.2786V27.2965H19.5354V34.606Z" fill="white"/>
<path d="M12.5362 21.8987L12 22.2239V20.7564L25.9979 12.2113C30.4947 15.0559 34.9914 17.9005 39.4909 20.7422V22.2267L25.9866 13.6873L12.5362 21.8959V21.8987Z" fill="white"/>
<path d="M21.4333 20.8327L20.9084 21.1749V19.6791C22.5227 18.6215 24.1342 17.5612 25.7484 16.5036C27.3627 17.5612 28.9742 18.6215 30.5884 19.6791V21.1749L25.7484 17.9994L21.4333 20.8299V20.8327Z" fill="white"/>
<path d="M33.4222 34.606V35.2338H32.1626V23.9119H33.4222V34.606Z" fill="white"/>
<path d="M28.6904 30.506V28.1364C28.6904 27.2542 28.3641 26.4597 27.8393 25.8856C27.3258 25.3258 26.6222 24.9808 25.8505 24.9808C25.0788 24.9808 24.3752 25.3286 23.8617 25.8856C23.3369 26.4597 23.0106 27.257 23.0106 28.1364V30.506H21.751V28.1364C21.751 26.9347 22.2049 25.8404 22.9369 25.0402C23.683 24.2258 24.7128 23.7225 25.8505 23.7225C26.9881 23.7225 28.018 24.2287 28.7641 25.0402C29.4961 25.8376 29.95 26.9347 29.95 28.1364V30.506H28.6904Z" fill="white"/>
<path d="M36.8926 22.3202V33.1868C36.8926 33.741 36.6769 34.2471 36.3337 34.6176C35.9762 34.9993 35.4825 35.2368 34.935 35.2368H30.6482C30.1007 35.2368 29.607 34.9993 29.2496 34.6176C28.9035 34.2471 28.6907 33.741 28.6907 33.1868V28.9708H29.9503V33.1868C29.9503 33.4158 30.0354 33.6194 30.1716 33.7636C30.2964 33.8965 30.4667 33.9813 30.6482 33.9813H34.935C35.1194 33.9813 35.2868 33.8993 35.4116 33.7636C35.5478 33.6166 35.6329 33.413 35.6329 33.1868V22.3202H36.8926Z" fill="white"/>
<path d="M16.0653 29.3015V33.1839C16.0653 33.4129 16.1504 33.6165 16.2866 33.7607C16.4114 33.8936 16.5816 33.9784 16.7632 33.9784H21.05C21.2344 33.9784 21.4018 33.8964 21.5266 33.7607C21.6628 33.6137 21.7479 33.4101 21.7479 33.1839V28.9679H23.0075V33.1839C23.0075 33.7381 22.7919 34.2442 22.4486 34.6146C22.0912 34.9964 21.5975 35.2339 21.05 35.2339H16.7632C16.2157 35.2339 15.722 34.9964 15.3646 34.6146C15.0184 34.2442 14.8057 33.7381 14.8057 33.1839V29.3015H16.0653Z" fill="white"/>
<defs>
<linearGradient id="paint0_linear_327_1971" x1="1" y1="1" x2="48.2772" y2="51" gradientUnits="userSpaceOnUse">
<stop stop-color="#A0BA4F"/>
<stop offset="1" stop-color="#7A8E3B"/>
</linearGradient>
<linearGradient id="paint1_linear_327_1971" x1="1" y1="1" x2="48.2772" y2="51" gradientUnits="userSpaceOnUse">
<stop stop-color="#A0BA4F"/>
<stop offset="1" stop-color="#7A8E3B"/>
</linearGradient>
</defs>
</svg>
