<svg width="50" height="50" viewBox="0 0 50 50" fill="none" xmlns="http://www.w3.org/2000/svg">
<circle cx="25" cy="25" r="25" fill="url(#paint0_linear_654_1845)"/>
<path d="M28.8854 25.5265C28.8939 25.5524 28.9023 25.574 28.9065 25.5956C29.2436 25.7725 29.5934 25.9106 29.9474 26.0099C30.9082 26.2731 31.8943 26.2429 32.7582 25.9408C33.6094 25.643 34.3385 25.0863 34.8062 24.3009C34.9285 24.0937 35.0338 23.8693 35.1181 23.6233C34.8231 23.4679 34.5113 23.3471 34.191 23.2608C33.2217 22.9932 32.1851 23.0364 31.2706 23.3514C30.3688 23.6621 29.5934 24.2318 29.1256 25.0173C29.0329 25.1769 28.9486 25.3453 28.8812 25.5265M20.1538 27.5203C20.5078 27.3779 20.8576 27.1751 21.2031 26.9162C21.0809 26.4673 20.9039 26.0617 20.6932 25.7078C20.1538 24.8144 19.3616 24.2146 18.4471 23.8995C17.52 23.5801 16.4707 23.5456 15.4509 23.7916C14.9157 23.9168 14.3889 24.1239 13.8917 24.4001C14.115 24.8921 14.3932 25.3496 14.7176 25.7596C15.3961 26.6184 16.2726 27.2571 17.225 27.5851C18.1648 27.9044 19.1804 27.9174 20.1538 27.5203ZM28.8222 28.9963C28.6284 28.8927 28.5525 28.651 28.6537 28.4525C28.7548 28.254 28.9908 28.1763 29.1846 28.2799C29.842 28.6295 30.5626 28.828 31.3001 28.8841C32.0839 28.9445 32.8846 28.8539 33.6432 28.6252C33.8539 28.5647 34.0688 28.6856 34.132 28.9014C34.191 29.1171 34.073 29.3372 33.8623 29.402C33.011 29.6566 32.1176 29.7602 31.2411 29.6911C30.3983 29.6264 29.5723 29.3977 28.818 28.9963H28.8222ZM16.6941 34.3995C16.5845 34.2053 16.6477 33.9593 16.8373 33.8471C17.027 33.7349 17.2672 33.7996 17.3767 33.9938C18.11 35.2929 19.1509 36.3459 20.3772 37.0709C21.5993 37.7916 23.0068 38.193 24.4733 38.193C26.3443 38.193 28.0679 37.5499 29.4459 36.471C30.7228 35.4698 31.7005 34.0974 32.2272 32.5092H15.8807C15.6616 32.5092 15.4846 32.328 15.4846 32.1036C15.4846 31.8792 15.6616 31.6979 15.8807 31.6979H24.0814V30.1658C23.9929 29.4236 23.6262 28.8539 23.1585 28.4266C22.716 28.021 22.1892 27.7318 21.7173 27.5333C21.3085 27.8483 20.8829 28.0943 20.4488 28.267C19.2899 28.7374 18.0889 28.7244 16.9806 28.349C15.8849 27.9735 14.8862 27.2398 14.1108 26.2688C13.6683 25.7121 13.2975 25.0734 13.0278 24.3785C12.9561 24.193 13.0278 23.9858 13.1879 23.8866C13.8411 23.4723 14.5533 23.1788 15.2781 23.0062C16.437 22.73 17.6338 22.7688 18.7 23.1356C19.783 23.5111 20.7269 24.2189 21.3675 25.2848C21.6288 25.7207 21.8395 26.217 21.987 26.7737C22.539 27.0068 23.1627 27.3434 23.6895 27.8268C23.8285 27.9562 23.9634 28.0943 24.0856 28.2454V16.3342L22.1724 18.0734C22.008 18.2201 21.7594 18.2072 21.6161 18.0388C21.4728 17.8705 21.4855 17.6159 21.6498 17.4692L24.2204 15.1344C24.3721 14.9963 24.5997 15.0006 24.743 15.1344L27.3094 17.4692C27.4737 17.6159 27.4864 17.8705 27.3431 18.0388C27.1998 18.2072 26.9512 18.2201 26.7868 18.0734L24.8736 16.3342V22.2898C25.0885 22.2725 25.2992 22.2423 25.5015 22.2035C25.8386 22.1344 26.1673 22.0308 26.475 21.8927C26.7742 21.7633 27.0649 21.5993 27.3389 21.4094C27.6128 21.2195 27.8656 21.0037 28.1016 20.7663C28.3376 20.529 28.5483 20.2657 28.7295 19.9852C28.9149 19.7047 29.0709 19.4069 29.2015 19.1005C29.3321 18.7811 29.4333 18.4488 29.5049 18.1036C29.5723 17.7713 29.606 17.4217 29.606 17.0592C29.606 16.6967 29.5723 16.3471 29.5049 16.0148C29.4375 15.6695 29.3363 15.3372 29.2015 15.0179C29.0751 14.7115 28.9149 14.4137 28.7295 14.1332C28.5441 13.8527 28.3334 13.5937 28.1016 13.352C27.8656 13.1147 27.6128 12.8946 27.3389 12.709C27.0649 12.5191 26.7742 12.3594 26.475 12.2256C26.1631 12.0919 25.8386 11.9883 25.5015 11.9149C25.177 11.8459 24.8357 11.8113 24.4817 11.8113C24.1277 11.8113 23.7864 11.8459 23.4619 11.9149C23.1248 11.984 22.8003 12.0875 22.4884 12.2256C22.1892 12.3551 21.8985 12.5191 21.6245 12.709C21.3506 12.8989 21.0978 13.1147 20.8618 13.352C20.6258 13.5937 20.4151 13.8527 20.2339 14.1332C20.0485 14.4137 19.8926 14.7115 19.7619 15.0179C19.6313 15.3372 19.5301 15.6695 19.4585 16.0148C19.3911 16.3471 19.3574 16.6967 19.3574 17.0592C19.3574 17.4217 19.3911 17.7713 19.4585 18.1036C19.5259 18.4488 19.6271 18.7811 19.7619 19.1005C19.8883 19.4069 20.0485 19.7047 20.2339 19.9852C20.4193 20.2657 20.63 20.5247 20.8618 20.7663C21.0936 21.008 21.3506 21.2238 21.6245 21.4094C21.8985 21.5993 22.1892 21.7633 22.4884 21.8927C22.6907 21.979 22.7834 22.2164 22.6991 22.4192C22.6149 22.6221 22.3831 22.7213 22.185 22.635C21.831 22.4797 21.4939 22.2941 21.1821 22.0826C20.866 21.8625 20.571 21.6165 20.3013 21.3403C20.0316 21.0641 19.7914 20.7663 19.5765 20.4383C19.3658 20.119 19.1846 19.7781 19.0371 19.4112C18.8854 19.0444 18.7674 18.6603 18.6873 18.2589C18.6115 17.8662 18.5693 17.4605 18.5693 17.0549C18.5693 16.6492 18.6115 16.2435 18.6873 15.8508C18.7674 15.4494 18.8854 15.0654 19.0371 14.6985C19.1888 14.336 19.37 13.9908 19.5765 13.6714C19.7914 13.3477 20.0316 13.0456 20.3013 12.7694C20.571 12.4932 20.8618 12.2472 21.1821 12.0271C21.4939 11.8113 21.8268 11.6258 22.185 11.4747C22.5432 11.3194 22.9183 11.1985 23.3102 11.1208C23.6937 11.0432 24.0898 11 24.4859 11C24.882 11 25.2782 11.0432 25.6617 11.1208C26.0536 11.2028 26.4286 11.3237 26.7868 11.4747C27.1408 11.6301 27.4779 11.8157 27.7898 12.0271C28.1058 12.2472 28.4008 12.4932 28.6705 12.7694C28.9402 13.0413 29.1804 13.3434 29.3953 13.6714C29.606 13.9908 29.7873 14.3317 29.9347 14.6985C30.0865 15.0654 30.2044 15.4494 30.2803 15.8508C30.3562 16.2435 30.3983 16.6492 30.3983 17.0549C30.3983 17.4605 30.3562 17.8662 30.2803 18.2589C30.2002 18.6603 30.0822 19.0444 29.9347 19.4112C29.783 19.7737 29.6018 20.119 29.3953 20.4383C29.1804 20.762 28.9402 21.0641 28.6705 21.3403C28.4008 21.6122 28.11 21.8625 27.7898 22.0826C27.4779 22.2984 27.145 22.484 26.7868 22.635C26.4286 22.7904 26.0536 22.9112 25.6617 22.9889C25.4046 23.0407 25.1433 23.0795 24.882 23.0968V28.3792C25.059 28.0598 25.2571 27.762 25.4762 27.4945C26.2095 26.5795 27.1492 25.9451 28.0805 25.4747C28.1775 25.164 28.3081 24.8705 28.4725 24.5986C29.0414 23.6363 29.9685 22.9501 31.0388 22.5832C32.0966 22.2207 33.2934 22.1689 34.4101 22.4797C34.8821 22.6091 35.3456 22.8076 35.7797 23.0709C35.944 23.1529 36.0368 23.3471 35.9862 23.537C35.8724 23.9642 35.7081 24.3613 35.4974 24.7152C34.9327 25.6732 34.0519 26.3465 33.0321 26.7004C32.0249 27.0499 30.8787 27.0931 29.7662 26.7867C29.3026 26.6572 28.8433 26.4673 28.3966 26.217C27.5664 26.64 26.732 27.2096 26.0873 28.008C25.3709 28.897 24.8863 30.0795 24.8863 31.6893L32.775 31.6936C32.8088 31.6936 32.8425 31.6979 32.8762 31.7065C33.0869 31.7626 33.2133 31.9871 33.1543 32.2028C32.6318 34.1837 31.4813 35.897 29.939 37.1097C28.4261 38.2922 26.5382 39 24.4901 39C22.8846 39 21.3422 38.5598 20.0021 37.7657C18.6578 36.9716 17.52 35.8194 16.7151 34.3952L16.6941 34.3995Z" fill="white"/>
<defs>
<linearGradient id="paint0_linear_654_1845" x1="0" y1="0" x2="47.2772" y2="50" gradientUnits="userSpaceOnUse">
<stop stop-color="#A0BA4F"/>
<stop offset="1" stop-color="#7A8E3B"/>
</linearGradient>
</defs>
</svg>
