<svg width="50" height="50" viewBox="0 0 50 50" fill="none" xmlns="http://www.w3.org/2000/svg">
<circle cx="25" cy="25" r="25" fill="#2F3740"/>
<path d="M29.1706 25.5265C29.179 25.5524 29.1874 25.574 29.1917 25.5956C29.5288 25.7725 29.8786 25.9106 30.2325 26.0099C31.1934 26.2731 32.1795 26.2429 33.0433 25.9408C33.8946 25.643 34.6236 25.0863 35.0914 24.3009C35.2136 24.0937 35.319 23.8693 35.4032 23.6233C35.1083 23.4679 34.7964 23.3471 34.4761 23.2608C33.5069 22.9932 32.4702 23.0364 31.5558 23.3514C30.654 23.6621 29.8786 24.2318 29.4108 25.0173C29.3181 25.1769 29.2338 25.3453 29.1664 25.5265M20.439 27.5203C20.793 27.3779 21.1427 27.1751 21.4883 26.9162C21.3661 26.4673 21.1891 26.0617 20.9784 25.7078C20.439 24.8144 19.6467 24.2146 18.7323 23.8995C17.8052 23.5801 16.7559 23.5456 15.7361 23.7916C15.2009 23.9168 14.6741 24.1239 14.1768 24.4001C14.4002 24.8921 14.6783 25.3496 15.0028 25.7596C15.6813 26.6184 16.5578 27.2571 17.5102 27.5851C18.4499 27.9044 19.4655 27.9174 20.439 27.5203ZM29.1074 28.9963C28.9135 28.8927 28.8377 28.651 28.9388 28.4525C29.04 28.254 29.2759 28.1763 29.4698 28.2799C30.1272 28.6295 30.8478 28.828 31.5853 28.8841C32.3691 28.9445 33.1698 28.8539 33.9283 28.6252C34.139 28.5647 34.3539 28.6856 34.4171 28.9014C34.4761 29.1171 34.3581 29.3372 34.1474 29.402C33.2962 29.6566 32.4028 29.7602 31.5263 29.6911C30.6835 29.6264 29.8575 29.3977 29.1032 28.9963H29.1074ZM16.9792 34.3995C16.8696 34.2053 16.9329 33.9593 17.1225 33.8471C17.3121 33.7349 17.5523 33.7996 17.6619 33.9938C18.3951 35.2928 19.436 36.3459 20.6623 37.0709C21.8844 37.7916 23.2919 38.193 24.7584 38.193C26.6295 38.193 28.3531 37.5499 29.7311 36.471C31.0079 35.4698 31.9856 34.0974 32.5124 32.5092H16.1659C15.9468 32.5092 15.7698 32.328 15.7698 32.1036C15.7698 31.8792 15.9468 31.6979 16.1659 31.6979H24.3665V30.1658C24.278 29.4236 23.9114 28.8539 23.4436 28.4266C23.0012 28.021 22.4744 27.7318 22.0024 27.5333C21.5936 27.8483 21.168 28.0943 20.734 28.267C19.5751 28.7374 18.3741 28.7244 17.2658 28.349C16.1701 27.9735 15.1714 27.2398 14.396 26.2688C13.9535 25.7121 13.5826 25.0734 13.3129 24.3785C13.2413 24.193 13.3129 23.9858 13.4731 23.8866C14.1263 23.4723 14.8384 23.1788 15.5633 23.0062C16.7222 22.73 17.919 22.7688 18.9851 23.1356C20.0681 23.5111 21.0121 24.2189 21.6526 25.2848C21.9139 25.7207 22.1246 26.217 22.2721 26.7737C22.8242 27.0068 23.4478 27.3434 23.9746 27.8268C24.1137 27.9562 24.2485 28.0943 24.3707 28.2454V16.3342L22.4575 18.0734C22.2932 18.2201 22.0446 18.2072 21.9013 18.0388C21.758 17.8705 21.7706 17.6159 21.935 17.4692L24.5056 15.1344C24.6573 14.9963 24.8849 15.0006 25.0281 15.1344L27.5945 17.4692C27.7589 17.6159 27.7715 17.8705 27.6282 18.0388C27.485 18.2072 27.2363 18.2201 27.072 18.0734L25.1588 16.3342V22.2898C25.3737 22.2725 25.5844 22.2423 25.7867 22.2035C26.1238 22.1344 26.4525 22.0308 26.7601 21.8927C27.0593 21.7633 27.3501 21.5993 27.624 21.4094C27.8979 21.2195 28.1508 21.0037 28.3868 20.7663C28.6228 20.529 28.8335 20.2657 29.0147 19.9852C29.2001 19.7047 29.356 19.4069 29.4867 19.1005C29.6173 18.7811 29.7184 18.4488 29.7901 18.1036C29.8575 17.7713 29.8912 17.4217 29.8912 17.0592C29.8912 16.6967 29.8575 16.3471 29.7901 16.0148C29.7226 15.6695 29.6215 15.3372 29.4867 15.0179C29.3602 14.7115 29.2001 14.4137 29.0147 14.1332C28.8293 13.8527 28.6185 13.5937 28.3868 13.352C28.1508 13.1147 27.8979 12.8946 27.624 12.709C27.3501 12.5191 27.0593 12.3594 26.7601 12.2256C26.4483 12.0919 26.1238 11.9883 25.7867 11.9149C25.4622 11.8459 25.1208 11.8113 24.7669 11.8113C24.4129 11.8113 24.0715 11.8459 23.7471 11.9149C23.4099 11.984 23.0854 12.0875 22.7736 12.2256C22.4744 12.3551 22.1836 12.5191 21.9097 12.709C21.6358 12.8989 21.3829 13.1147 21.147 13.352C20.911 13.5937 20.7003 13.8527 20.5191 14.1332C20.3336 14.4137 20.1777 14.7115 20.0471 15.0179C19.9164 15.3372 19.8153 15.6695 19.7437 16.0148C19.6762 16.3471 19.6425 16.6967 19.6425 17.0592C19.6425 17.4217 19.6762 17.7713 19.7437 18.1036C19.8111 18.4488 19.9122 18.7811 20.0471 19.1005C20.1735 19.4069 20.3336 19.7047 20.5191 19.9852C20.7045 20.2657 20.9152 20.5247 21.147 20.7663C21.3787 21.008 21.6358 21.2238 21.9097 21.4094C22.1836 21.5993 22.4744 21.7633 22.7736 21.8927C22.9759 21.979 23.0686 22.2164 22.9843 22.4192C22.9 22.6221 22.6682 22.7213 22.4702 22.635C22.1162 22.4797 21.7791 22.2941 21.4672 22.0826C21.1512 21.8625 20.8562 21.6165 20.5865 21.3403C20.3168 21.0641 20.0766 20.7663 19.8617 20.4383C19.6509 20.119 19.4697 19.7781 19.3222 19.4112C19.1705 19.0444 19.0525 18.6603 18.9725 18.2589C18.8966 17.8662 18.8545 17.4605 18.8545 17.0549C18.8545 16.6492 18.8966 16.2435 18.9725 15.8508C19.0525 15.4494 19.1705 15.0654 19.3222 14.6985C19.474 14.336 19.6552 13.9908 19.8617 13.6714C20.0766 13.3477 20.3168 13.0456 20.5865 12.7694C20.8562 12.4932 21.147 12.2472 21.4672 12.0271C21.7791 11.8113 22.112 11.6258 22.4702 11.4747C22.8284 11.3194 23.2034 11.1985 23.5953 11.1208C23.9788 11.0432 24.375 11 24.7711 11C25.1672 11 25.5633 11.0432 25.9468 11.1208C26.3387 11.2028 26.7138 11.3237 27.072 11.4747C27.426 11.6301 27.7631 11.8157 28.0749 12.0271C28.391 12.2472 28.686 12.4932 28.9557 12.7694C29.2254 13.0413 29.4656 13.3434 29.6805 13.6714C29.8912 13.9908 30.0724 14.3317 30.2199 14.6985C30.3716 15.0654 30.4896 15.4494 30.5655 15.8508C30.6413 16.2435 30.6835 16.6492 30.6835 17.0549C30.6835 17.4605 30.6413 17.8662 30.5655 18.2589C30.4854 18.6603 30.3674 19.0444 30.2199 19.4112C30.0682 19.7737 29.887 20.119 29.6805 20.4383C29.4656 20.762 29.2254 21.0641 28.9557 21.3403C28.686 21.6122 28.3952 21.8625 28.0749 22.0826C27.7631 22.2984 27.4302 22.484 27.072 22.635C26.7138 22.7904 26.3387 22.9112 25.9468 22.9889C25.6897 23.0407 25.4285 23.0795 25.1672 23.0968V28.3792C25.3442 28.0598 25.5423 27.762 25.7614 27.4945C26.4946 26.5795 27.4344 25.9451 28.3657 25.4747C28.4626 25.164 28.5933 24.8705 28.7576 24.5986C29.3265 23.6363 30.2536 22.9501 31.324 22.5832C32.3817 22.2207 33.5785 22.1689 34.6953 22.4797C35.1673 22.6091 35.6308 22.8076 36.0649 23.0709C36.2292 23.1529 36.3219 23.3471 36.2713 23.537C36.1576 23.9642 35.9932 24.3613 35.7825 24.7152C35.2178 25.6732 34.3371 26.3465 33.3173 26.7004C32.3101 27.0499 31.1639 27.0931 30.0513 26.7867C29.5878 26.6572 29.1285 26.4673 28.6818 26.217C27.8516 26.64 27.0172 27.2096 26.3724 28.008C25.656 28.897 25.1714 30.0795 25.1714 31.6893L33.0602 31.6936C33.0939 31.6936 33.1276 31.6979 33.1613 31.7065C33.372 31.7626 33.4985 31.9871 33.4395 32.2028C32.9169 34.1837 31.7665 35.897 30.2241 37.1097C28.7113 38.2922 26.8233 39 24.7753 39C23.1697 39 21.6274 38.5598 20.2873 37.7657C18.943 36.9716 17.8052 35.8194 17.0003 34.3952L16.9792 34.3995Z" fill="white"/>
</svg>
