<svg width="64" height="62" viewBox="0 0 64 62" fill="none" xmlns="http://www.w3.org/2000/svg">
<path d="M43.7419 35.8387H49.3871C50.2742 35.8387 51 35.1129 51 34.2258V31C51 30.1129 50.2742 29.3871 49.3871 29.3871H2.6129C1.71774 29.3871 1 30.1129 1 31V34.2258C1 35.1129 1.72581 35.8387 2.6129 35.8387H36.4839" stroke="url(#paint0_linear_626_11375)" stroke-width="1.4" stroke-linecap="round" stroke-linejoin="round"/>
<path d="M45.3552 35.8386L49.3875 55.1935H44.5488L38.9036 41.4838H13.0972L7.45199 55.1935H2.61328L5.59715 40.6773" stroke="url(#paint1_linear_626_11375)" stroke-width="1.4" stroke-linecap="round" stroke-linejoin="round"/>
<path d="M37.2885 29.3869L34.8691 19.7095" stroke="url(#paint2_linear_626_11375)" stroke-width="1.4" stroke-linecap="round" stroke-linejoin="round"/>
<path d="M25.9996 29.3869L28.419 19.7095L26.8061 12.4515L24.3867 10.0321H36.4835L34.8706 19.7095H32.4512" stroke="url(#paint3_linear_626_11375)" stroke-width="1.4" stroke-linecap="round" stroke-linejoin="round"/>
<path d="M36.4824 10.0321H39.7082L41.3211 11.645V17.2902" stroke="url(#paint4_linear_626_11375)" stroke-width="1.4" stroke-linecap="round" stroke-linejoin="round"/>
<path d="M30.0332 6.80627H33.259" stroke="url(#paint5_linear_626_11375)" stroke-width="1.4" stroke-linecap="round" stroke-linejoin="round"/>
<path d="M11.4844 22.9353V25.3547C11.4844 27.774 13.0973 29.3869 15.5166 29.3869C17.936 29.3869 19.5489 27.774 19.5489 25.3547V22.9353H16.3231" stroke="url(#paint6_linear_626_11375)" stroke-width="1.4" stroke-linecap="round" stroke-linejoin="round"/>
<defs>
<linearGradient id="paint0_linear_626_11375" x1="1" y1="29.3871" x2="2.46901" y2="41.4276" gradientUnits="userSpaceOnUse">
<stop stop-color="#A0BA4F"/>
<stop offset="1" stop-color="#7A8E3B"/>
</linearGradient>
<linearGradient id="paint1_linear_626_11375" x1="2.61328" y1="35.8386" x2="15.0523" y2="67.6309" gradientUnits="userSpaceOnUse">
<stop stop-color="#A0BA4F"/>
<stop offset="1" stop-color="#7A8E3B"/>
</linearGradient>
<linearGradient id="paint2_linear_626_11375" x1="34.8691" y1="19.7095" x2="39.3988" y2="20.9071" gradientUnits="userSpaceOnUse">
<stop stop-color="#A0BA4F"/>
<stop offset="1" stop-color="#7A8E3B"/>
</linearGradient>
<linearGradient id="paint3_linear_626_11375" x1="24.3867" y1="10.0321" x2="41.2503" y2="21.1788" gradientUnits="userSpaceOnUse">
<stop stop-color="#A0BA4F"/>
<stop offset="1" stop-color="#7A8E3B"/>
</linearGradient>
<linearGradient id="paint4_linear_626_11375" x1="36.4824" y1="10.0321" x2="42.9566" y2="14.5968" gradientUnits="userSpaceOnUse">
<stop stop-color="#A0BA4F"/>
<stop offset="1" stop-color="#7A8E3B"/>
</linearGradient>
<linearGradient id="paint5_linear_626_11375" x1="30.0332" y1="6.80627" x2="30.5445" y2="8.55047" gradientUnits="userSpaceOnUse">
<stop stop-color="#A0BA4F"/>
<stop offset="1" stop-color="#7A8E3B"/>
</linearGradient>
<linearGradient id="paint6_linear_626_11375" x1="11.4844" y1="22.9353" x2="17.3637" y2="30.7077" gradientUnits="userSpaceOnUse">
<stop stop-color="#A0BA4F"/>
<stop offset="1" stop-color="#7A8E3B"/>
</linearGradient>
</defs>
</svg>
