<svg width="1010" height="206" viewBox="0 0 1010 206" fill="none" xmlns="http://www.w3.org/2000/svg">
<g filter="url(#filter0_d_618_7393)">
<path fill-rule="evenodd" clip-rule="evenodd" d="M124.355 95.9302C124.355 105.055 111.33 105.938 104.412 105.938V106.012H73.4323C70.636 106.012 68.4284 108.293 68.4284 111.016V114.989C68.4284 117.786 70.7096 119.993 73.4323 119.993H104.486C120.675 119.699 138.851 115.21 138.851 95.1943C138.851 88.4243 136.496 82.6845 130.83 78.7108C123.692 73.7804 111.55 71.2049 103.014 69.7331C102.715 69.679 102.406 69.6237 102.091 69.5671L102.073 69.5639L102.072 69.5637L102.068 69.5631C96.8062 68.6192 89.4917 67.307 84.9855 64.95C82.3363 63.5518 80.5703 61.565 80.5703 58.4743C80.5703 49.4967 93.5952 48.908 99.9973 48.9816H129.653C132.449 48.9816 134.657 46.7004 134.657 43.9776V40.0039C134.657 37.2076 132.376 35 129.653 35H99.9237C83.8817 35.1472 66 39.4152 66 59.1366C66 65.6859 68.2076 71.4256 73.7266 75.2522C80.4967 80.0353 92.197 82.3901 100.292 83.7147C106.031 84.6713 114.347 86.0695 119.424 88.8658C122.221 90.4111 124.355 92.5452 124.355 95.9302ZM156.934 45.155C165.176 36.9133 178.127 35 189.313 35C200.498 35 213.376 36.9133 221.691 45.155C229.933 53.3968 231.846 66.3481 231.846 77.5334C231.846 88.7186 229.933 101.596 221.691 109.912C213.449 118.153 200.498 120.067 189.313 120.067C178.127 120.067 165.25 118.153 156.934 109.912C148.693 101.67 146.779 88.7186 146.779 77.5334C146.779 66.3481 148.693 53.4704 156.934 45.155ZM167.972 55.6044C162.527 61.1235 161.423 70.1011 161.423 77.4598C161.423 84.8185 162.601 93.7961 167.972 99.3152C173.344 104.761 181.954 106.012 189.239 106.012C196.524 106.012 205.134 104.761 210.506 99.3152C215.951 93.7961 217.055 84.8185 217.055 77.4598C217.055 70.1011 215.878 61.1235 210.506 55.6044C205.134 50.159 196.524 48.908 189.239 48.908C181.954 48.908 173.344 50.159 167.972 55.6044ZM311.442 38.6772L282.891 101.962L282.817 102.036L254.118 38.6772C253.309 36.9111 251.69 35.8809 249.776 35.8809H244.478C242.859 35.8809 241.387 36.6903 240.504 38.0885C239.621 39.4866 239.548 41.1055 240.21 42.6509L273.766 116.312C274.575 118.078 276.194 119.108 278.107 119.108H287.453C289.366 119.108 290.985 118.078 291.795 116.312L325.35 42.6509C326.086 41.1055 325.939 39.4866 325.056 38.0885C324.173 36.6903 322.775 35.8809 321.082 35.8809H315.784C313.871 35.8809 312.252 36.9111 311.442 38.6772ZM332 116.312L338.623 101.962L383.806 101.815L383.879 101.741L390.502 116.238C391.311 118.004 392.93 119.034 394.844 119.034H399.995C401.614 119.034 403.085 118.225 403.968 116.827C404.852 115.429 404.999 113.81 404.263 112.264L370.192 38.6036C369.383 36.9111 367.764 35.8809 365.85 35.8809H356.505C354.591 35.8809 352.973 36.9111 352.163 38.6036L318.092 112.264C317.356 113.81 317.504 115.429 318.387 116.827C319.27 118.225 320.668 119.034 322.36 119.034H327.659C329.572 119.034 331.191 118.004 332 116.312ZM361.178 52.9591L361.214 52.8795H361.141L361.178 52.9591ZM361.178 52.9591L345.025 87.907H377.33L361.178 52.9591ZM922.591 114.322V50.5959H951.29C953.865 50.5959 955.999 48.4618 955.999 45.8863V41.4711C955.999 38.8955 953.865 36.7615 951.29 36.7615H879.395C876.82 36.7615 874.686 38.8955 874.686 41.4711V45.8863C874.686 48.4618 876.82 50.5959 879.395 50.5959H908.094V114.322C908.094 116.898 910.228 119.032 912.804 119.032H917.881C920.457 119.032 922.591 116.898 922.591 114.322ZM837.158 105.936C844.001 105.936 856.879 105.053 856.879 96.0015C856.879 92.6901 854.745 90.5561 852.022 89.0108C847.018 86.288 838.777 84.8899 833.11 83.9333C825.089 82.6087 813.536 80.2539 806.913 75.6179C801.468 71.7914 799.334 66.1987 799.334 59.7231C799.334 40.2225 816.995 36.028 832.816 35.8809H862.177C864.9 35.8809 867.108 38.0885 867.108 40.8112V44.7113C867.108 47.434 864.9 49.6416 862.177 49.6416H832.816C826.488 49.5681 813.61 50.1568 813.61 58.9872C813.61 62.0043 815.376 63.9911 817.952 65.3893C822.232 67.6635 829.128 68.9041 834.271 69.8296C834.786 69.9223 835.284 70.0118 835.76 70.0989C844.149 71.5706 856.217 74.0726 863.208 78.9293C868.874 82.8294 871.155 88.5692 871.155 95.2657C871.155 115.061 853.2 119.476 837.158 119.77H806.472C803.749 119.77 801.542 117.563 801.542 114.84V110.94C801.542 108.217 803.749 106.009 806.472 106.009H837.158V105.936ZM734.957 71.3474V50.5959H773.075C775.651 50.5959 777.785 48.4618 777.785 45.8863V41.4711C777.785 38.8955 775.651 36.7615 773.075 36.7615H725.17C722.594 36.7615 720.46 38.8955 720.46 41.4711V71.3474H710.526C707.95 71.3474 705.816 73.4815 705.816 76.057V79.81C705.816 82.3855 707.95 84.5195 710.526 84.5195H720.46V114.396C720.46 116.971 722.594 119.105 725.17 119.105H788.455C791.03 119.105 793.164 116.971 793.164 114.396V109.981C793.164 107.405 791.03 105.271 788.455 105.271H734.957V84.5195H780.802C783.377 84.5195 785.511 82.3855 785.511 79.81V76.057C785.511 73.4815 783.377 71.3474 780.802 71.3474H734.957ZM663.47 102.107L691.727 39.5578C692.537 37.8653 694.156 36.7615 695.995 36.7615H701.22C702.839 36.7615 704.311 37.4974 705.194 38.8955C706.077 40.2937 706.224 41.9126 705.488 43.3843L672.3 116.236C671.491 117.928 669.946 118.958 668.032 118.958H658.834C656.921 118.958 655.375 117.928 654.566 116.236L621.378 43.3843C620.716 41.9126 620.789 40.2937 621.672 38.8955C622.555 37.4974 623.954 36.7615 625.646 36.7615H630.871C632.784 36.7615 634.403 37.7917 635.139 39.5578L663.47 102.107ZM598.514 41.5447V96.8822L548.916 38.454C547.96 37.3502 546.709 36.7615 545.31 36.7615H538.393C535.818 36.7615 533.684 38.8955 533.684 41.471V114.322C533.684 116.898 535.818 119.032 538.393 119.032H543.471C546.046 119.032 548.18 116.898 548.18 114.322V58.9848L597.778 117.413C598.735 118.517 599.986 119.105 601.384 119.105H608.301C610.877 119.105 613.01 116.971 613.01 114.396V41.5447C613.01 38.9691 610.877 36.835 608.301 36.835H603.224C600.648 36.835 598.514 38.9691 598.514 41.5447ZM485.534 105.86V49.9336H474.054C470.522 49.9336 467.652 47.7996 467.652 45.224V41.4711C467.652 38.8955 470.522 36.7615 474.054 36.7615H511.51C515.042 36.7615 517.912 38.8955 517.912 41.4711V45.224C517.912 47.7996 515.042 49.9336 511.51 49.9336H500.031V105.86H511.51C515.042 105.86 517.912 107.994 517.912 110.569V114.322C517.912 116.898 515.042 119.032 511.51 119.032H474.054C470.522 119.032 467.652 116.898 467.652 114.322V110.569C467.652 107.994 470.522 105.86 474.054 105.86H485.534Z" fill="url(#paint0_linear_618_7393)"/>
</g>
<defs>
<filter id="filter0_d_618_7393" x="0" y="0" width="1010" height="205.067" filterUnits="userSpaceOnUse" color-interpolation-filters="sRGB">
<feFlood flood-opacity="0" result="BackgroundImageFix"/>
<feColorMatrix in="SourceAlpha" type="matrix" values="0 0 0 0 0 0 0 0 0 0 0 0 0 0 0 0 0 0 127 0" result="hardAlpha"/>
<feOffset dx="-6" dy="25"/>
<feGaussianBlur stdDeviation="30"/>
<feComposite in2="hardAlpha" operator="out"/>
<feColorMatrix type="matrix" values="0 0 0 0 0 0 0 0 0 0 0 0 0 0 0 0 0 0 0.2 0"/>
<feBlend mode="normal" in2="BackgroundImageFix" result="effect1_dropShadow_618_7393"/>
<feBlend mode="normal" in="SourceGraphic" in2="effect1_dropShadow_618_7393" result="shape"/>
</filter>
<linearGradient id="paint0_linear_618_7393" x1="66" y1="35" x2="80.4435" y2="194.816" gradientUnits="userSpaceOnUse">
<stop stop-color="#A0BA4F"/>
<stop offset="1" stop-color="#7A8E3B"/>
</linearGradient>
</defs>
</svg>
