<svg width="148" height="148" viewBox="0 0 148 148" fill="none" xmlns="http://www.w3.org/2000/svg">
<path d="M57.863 1.88337L67.178 0.433594L68.8498 11.1502L66.4573 11.5224L65.1336 3.04907L60.6036 3.75436L61.9273 12.2277L59.5348 12.6L57.863 1.88337Z" fill="white"/>
<path d="M73.0121 10.636C72.2081 10.1266 71.6001 9.43114 71.1785 8.55442C70.7569 7.6728 70.5657 6.67852 70.5951 5.5716C70.6294 4.44998 70.8844 3.46061 71.3599 2.60348C71.8355 1.75124 72.4924 1.09493 73.3209 0.639424C74.1495 0.18392 75.1006 -0.0266896 76.1595 0.00269772C77.2381 0.0320851 78.1794 0.306367 78.9834 0.81085C79.7875 1.31533 80.4003 2.01573 80.8219 2.89245C81.2435 3.77407 81.4396 4.76835 81.4102 5.88017C81.3759 6.99689 81.121 7.98136 80.6454 8.83849C80.1699 9.69073 79.5129 10.347 78.6795 10.8074C77.846 11.2678 76.8949 11.4785 75.8311 11.4491C74.7574 11.4197 73.821 11.1503 73.017 10.6409L73.0121 10.636ZM78.0421 8.30462C78.5471 7.69729 78.8119 6.86464 78.8413 5.8067C78.8707 4.73406 78.655 3.88673 78.1892 3.2549C77.7235 2.62307 77.0224 2.29491 76.0909 2.27042C75.1447 2.24103 74.4289 2.53001 73.9387 3.13735C73.4484 3.74469 73.1886 4.57733 73.1592 5.64017C73.1297 6.71771 73.3455 7.56994 73.8112 8.19687C74.277 8.8238 74.9731 9.15196 75.8899 9.17645C76.8214 9.20584 77.5372 8.91196 78.0421 8.30462Z" fill="white"/>
<path d="M82.7486 9.51911C83.0035 9.57298 83.2143 9.56319 83.3859 9.47992C83.5526 9.40156 83.7046 9.25952 83.8321 9.0636C83.9595 8.86769 84.1017 8.57871 84.2635 8.20157C84.5821 7.42771 84.9204 6.46282 85.2832 5.29712C85.646 4.13632 86.0431 2.7894 86.4696 1.25146L94.2795 2.94614L91.9753 13.5452L89.6171 13.0358L91.436 4.6555L88.0679 3.92571C87.2148 6.7469 86.5873 8.62769 86.1853 9.56809C85.7931 10.484 85.3617 11.1207 84.8861 11.4783C84.4106 11.8358 83.8075 11.9387 83.0721 11.777C82.6996 11.6938 82.2926 11.5517 81.8612 11.3509L82.2926 9.36727C82.4838 9.44074 82.6358 9.49462 82.7535 9.51911H82.7486Z" fill="white"/>
<path d="M104.997 7.00656L107.237 7.92737L95.667 20.1035L93.5687 19.2366L97.0937 15.3869L97.1427 3.76416L99.4763 4.72415L99.3195 13.0555L105.002 7.00167L104.997 7.00656Z" fill="white"/>
<path d="M109.835 18.4478C109.375 18.2813 108.928 18.056 108.492 17.7817C107.551 17.1891 106.933 16.4985 106.634 15.7197C106.335 14.9361 106.36 14.0887 106.708 13.1777C106.904 12.6536 107.252 11.9924 107.752 11.2039L109.159 8.98022L111.233 10.288L109.826 12.5116C109.487 13.0455 109.257 13.4863 109.134 13.8487C108.953 14.3728 108.938 14.8332 109.09 15.2152C109.242 15.5973 109.581 15.9597 110.11 16.2928C110.86 16.763 111.6 16.9687 112.341 16.905L115.013 12.6781L117.067 13.9761L111.272 23.1449L109.218 21.847L111.164 18.7662C110.738 18.727 110.291 18.6242 109.835 18.4527V18.4478Z" fill="white"/>
<path d="M119.999 30.8201L118.288 29.2528L123.072 24.0316L114.478 25.7655L113.047 24.4577L120.381 16.4644L122.092 18.0317L117.43 23.1157L125.916 21.5288L127.333 22.8267L119.999 30.8201Z" fill="white"/>
<path d="M130.024 29.3557L127.808 26.4855L129.509 25.1729L135.422 32.8283L133.721 34.1409L131.505 31.2707L124.617 36.5849L123.136 34.6699L130.024 29.3557Z" fill="white"/>
<path d="M131.25 41.8454C131.049 42.4919 131.142 43.1776 131.524 43.8976C131.799 44.4168 132.157 44.8086 132.593 45.0682C133.03 45.3278 133.525 45.4453 134.079 45.4208L134.559 47.8698C133.863 47.9285 133.196 47.8502 132.554 47.6396C131.912 47.429 131.343 47.1008 130.833 46.6649C130.323 46.229 129.907 45.7 129.583 45.0829C129.078 44.1229 128.838 43.1629 128.867 42.2029C128.897 41.2429 129.176 40.3564 129.711 39.5482C130.245 38.7401 130.99 38.0838 131.951 37.5744C132.985 37.0258 134 36.7467 134.991 36.7369C135.981 36.7271 136.878 36.9671 137.687 37.4617C138.496 37.9564 139.148 38.6764 139.643 39.607C140.133 40.5278 140.349 41.4388 140.3 42.3254C140.246 43.2168 139.942 44.0396 139.378 44.7988C138.815 45.558 138.02 46.2094 137.006 46.7433C136.805 46.851 136.584 46.9539 136.354 47.0567L132.681 40.1164C131.931 40.6209 131.456 41.1939 131.255 41.8405L131.25 41.8454ZM134.319 39.3229L136.819 44.0445C137.515 43.5547 137.942 43.0404 138.104 42.4968C138.266 41.9531 138.167 41.3507 137.819 40.6895C137.069 39.2691 135.903 38.8136 134.324 39.3229H134.319Z" fill="white"/>
<path d="M146.737 60.4817L147.865 69.8318L137.089 71.1248L136.8 68.7248L145.32 67.7012L144.771 63.1559L136.251 64.1796L135.961 61.7747L146.737 60.4817Z" fill="white"/>
<path d="M139.648 76.3509C139.138 76.8015 138.864 77.4333 138.81 78.2464C138.775 78.8341 138.873 79.3533 139.114 79.8039C139.349 80.2545 139.712 80.6121 140.202 80.8766L139.334 83.2177C138.712 82.9043 138.177 82.4929 137.746 81.9786C137.31 81.4643 136.991 80.8913 136.785 80.2496C136.579 79.608 136.496 78.9419 136.54 78.2464C136.608 77.164 136.903 76.2187 137.427 75.4154C137.952 74.6073 138.653 73.9999 139.53 73.5885C140.408 73.1771 141.388 73.0056 142.472 73.0693C143.644 73.1428 144.654 73.4318 145.507 73.9362C146.36 74.4407 147.002 75.1166 147.433 75.9591C147.865 76.8015 148.046 77.7517 147.982 78.8096C147.919 79.8529 147.634 80.7394 147.125 81.4741C146.615 82.2088 145.923 82.7525 145.046 83.1051C144.168 83.4626 143.153 83.6047 142.001 83.5312C141.776 83.5165 141.536 83.492 141.281 83.4577L141.761 75.6211C140.859 75.6603 140.153 75.9052 139.648 76.3509ZM143.585 75.7926L143.256 81.1264C144.105 81.0725 144.742 80.8521 145.159 80.4749C145.58 80.0929 145.811 79.5296 145.855 78.7803C145.953 77.1787 145.198 76.1795 143.58 75.7926H143.585Z" fill="white"/>
<path d="M144.467 94.8406C143.806 95.4626 143.001 95.8691 142.06 96.0601C141.119 96.2512 140.114 96.212 139.045 95.9475C137.991 95.683 137.094 95.2471 136.354 94.6398C135.613 94.0324 135.089 93.3026 134.79 92.4504C134.491 91.5982 134.456 90.697 134.696 89.7517C134.961 88.6937 135.466 87.8611 136.206 87.2537L130.99 85.946L131.583 83.5803L146.791 87.3909L146.272 89.4676L145.512 89.2766C146.021 90.2268 146.129 91.2847 145.835 92.4504C145.59 93.4251 145.139 94.2234 144.472 94.8406H144.467ZM136.966 91.5198C137.167 91.9949 137.501 92.3965 137.971 92.7247C138.442 93.0528 139.011 93.2977 139.673 93.4643C140.33 93.6308 140.942 93.6749 141.511 93.6063C142.08 93.5328 142.57 93.332 142.977 92.9941C143.384 92.6561 143.663 92.1859 143.815 91.5737C144.031 90.7117 143.884 89.9917 143.379 89.4137C142.869 88.8358 142.08 88.4145 141.006 88.1452C139.932 87.8758 139.035 87.8807 138.315 88.155C137.594 88.4292 137.118 89.017 136.893 89.9231C136.746 90.5157 136.77 91.0447 136.966 91.5198Z" fill="white"/>
<path d="M132.78 98.0142C133.559 97.4901 134.432 97.2159 135.398 97.1914C136.363 97.1669 137.344 97.3775 138.349 97.8281C139.354 98.2836 140.163 98.8909 140.771 99.6452C141.379 100.399 141.742 101.247 141.849 102.182C141.962 103.118 141.791 104.078 141.344 105.057C141.006 105.802 140.57 106.414 140.04 106.904C139.511 107.389 138.918 107.727 138.256 107.918C137.599 108.109 136.912 108.133 136.197 107.991L136.604 105.528C137.202 105.601 137.741 105.508 138.221 105.244C138.702 104.979 139.06 104.597 139.29 104.088C139.668 103.26 139.663 102.506 139.28 101.83C138.898 101.154 138.231 100.595 137.285 100.155C136.314 99.7187 135.447 99.5864 134.692 99.7579C133.937 99.9293 133.368 100.419 133 101.227C132.74 101.8 132.662 102.315 132.765 102.775C132.868 103.235 133.142 103.671 133.584 104.088L132.054 106.106C131.186 105.341 130.657 104.46 130.466 103.451C130.274 102.442 130.426 101.389 130.931 100.287C131.382 99.2926 132 98.5334 132.78 98.0093V98.0142Z" fill="white"/>
<path d="M127.848 107.639C128.71 107.242 129.627 107.105 130.593 107.232C131.559 107.359 132.5 107.737 133.417 108.368C134.344 109.005 135.035 109.759 135.496 110.621C135.952 111.483 136.148 112.39 136.079 113.335C136.01 114.28 135.672 115.186 135.074 116.058C134.461 116.945 133.726 117.586 132.858 117.983C131.99 118.38 131.078 118.517 130.108 118.394C129.137 118.272 128.196 117.895 127.279 117.263C126.357 116.631 125.666 115.877 125.21 115.015C124.754 114.153 124.558 113.247 124.627 112.297C124.695 111.346 125.034 110.435 125.637 109.559C126.245 108.677 126.98 108.035 127.843 107.639H127.848ZM127.073 113.124C127.308 113.879 127.867 114.554 128.735 115.152C129.617 115.759 130.451 116.039 131.235 115.99C132.02 115.941 132.677 115.529 133.201 114.765C133.736 113.986 133.883 113.227 133.643 112.488C133.402 111.748 132.838 111.077 131.966 110.47C131.078 109.857 130.245 109.578 129.461 109.632C128.681 109.686 128.029 110.088 127.509 110.842C126.98 111.606 126.833 112.365 127.073 113.119V113.124Z" fill="white"/>
<path d="M129.407 123.057L127.686 124.762L124.676 121.72L121.214 125.149L124.229 128.19L122.509 129.895L114.87 122.19L116.591 120.486L119.616 123.537L123.077 120.109L120.052 117.057L121.773 115.353L129.411 123.057H129.407Z" fill="white"/>
<path d="M110.331 135.224C110.081 134.944 109.796 134.577 109.482 134.117L105.722 128.621L107.472 127.426L108.296 128.626C108.335 127.862 108.526 127.191 108.87 126.618C109.213 126.045 109.742 125.511 110.448 125.026C111.081 124.595 111.703 124.345 112.316 124.277C112.929 124.208 113.498 124.296 114.012 124.546C114.527 124.796 114.959 125.168 115.302 125.673C115.753 126.329 115.964 126.99 115.939 127.661C115.915 128.327 115.63 129.023 115.096 129.748C114.792 130.145 114.414 130.561 113.963 131.002C113.512 131.442 112.865 132.06 112.012 132.853L111.698 133.142C112.091 133.637 112.517 133.901 112.973 133.95C113.429 133.994 113.959 133.813 114.562 133.402C115.003 133.098 115.336 132.721 115.557 132.27C115.777 131.82 115.812 131.33 115.66 130.811L117.876 130.135C118.185 131.075 118.175 131.986 117.846 132.863C117.513 133.744 116.836 134.533 115.817 135.229C114.988 135.797 114.184 136.144 113.405 136.282C112.625 136.419 111.899 136.296 111.228 135.919C110.89 135.728 110.59 135.498 110.34 135.219L110.331 135.224ZM110.59 131.487C111.365 130.757 111.919 130.223 112.248 129.895C112.576 129.567 112.855 129.253 113.076 128.959C113.346 128.582 113.507 128.234 113.561 127.921C113.615 127.607 113.547 127.314 113.36 127.039C113.13 126.701 112.816 126.515 112.419 126.476C112.022 126.437 111.595 126.574 111.14 126.887C110.713 127.176 110.389 127.509 110.174 127.882C109.953 128.254 109.821 128.621 109.777 128.984C109.732 129.346 109.752 129.669 109.84 129.949C109.919 130.326 110.169 130.835 110.595 131.477L110.59 131.487Z" fill="white"/>
<path d="M105.247 131.212C105.006 131.32 104.845 131.452 104.756 131.619C104.668 131.78 104.634 131.981 104.644 132.216C104.653 132.451 104.712 132.77 104.81 133.166C105.011 133.98 105.31 134.959 105.712 136.11C106.109 137.261 106.59 138.579 107.159 140.073L99.8685 143.334L95.4316 133.436L97.6329 132.451L101.138 140.278L104.286 138.873C103.295 136.095 102.687 134.21 102.452 133.211C102.222 132.241 102.192 131.472 102.364 130.904C102.536 130.331 102.962 129.895 103.648 129.586C103.996 129.429 104.408 129.307 104.879 129.214L105.707 131.065C105.511 131.119 105.354 131.168 105.247 131.217V131.212Z" fill="white"/>
<path d="M93.598 145.23L92.7303 141.723L90.8379 142.188C89.9652 142.404 89.3181 142.526 88.8964 142.556C86.9256 142.619 85.7097 141.718 85.244 139.837C85.0185 138.922 85.0724 138.123 85.4009 137.447C85.7343 136.766 86.3128 136.223 87.1413 135.802C87.5237 135.611 88.1659 135.405 89.068 135.18L93.3333 134.126L95.9464 144.652L93.5931 145.235L93.598 145.23ZM88.3621 137.423C88.0777 137.589 87.862 137.839 87.7149 138.167C87.5678 138.495 87.5384 138.858 87.6365 139.25C87.7394 139.656 87.9355 139.975 88.2248 140.2C88.514 140.425 88.8425 140.538 89.2102 140.538C89.4798 140.538 89.7936 140.499 90.1515 140.41L92.2792 139.886L91.4556 136.551L89.3279 137.075C88.9455 137.168 88.6219 137.286 88.367 137.428L88.3621 137.423Z" fill="white"/>
<path d="M83.8027 147.351L81.3857 147.512L81.1013 143.246L76.238 143.57L76.5223 147.836L74.1053 147.997L73.3846 137.178L75.8016 137.016L76.086 141.302L80.9494 140.979L80.665 136.693L83.082 136.531L83.8027 147.351Z" fill="white"/>
<path d="M62.6822 147.047L60.275 146.783L68.0162 131.878L70.2714 132.128L67.9525 136.801L71.1343 147.983L68.629 147.704L66.467 139.656L62.6871 147.047H62.6822Z" fill="white"/>
<path d="M53.7988 133.945C54.3479 134.509 54.7254 135.185 54.9411 135.973C55.1568 136.762 55.1813 137.624 55.0147 138.554L57.0149 139.225L58.3631 135.229L60.6575 136.002L57.1963 146.278L54.9019 145.504L56.2501 141.508L54.2499 140.837C53.8135 141.694 53.2693 142.37 52.6173 142.864C51.9652 143.359 51.2495 143.663 50.465 143.771C49.6806 143.883 48.8766 143.8 48.053 143.521C47.0577 143.188 46.2488 142.659 45.636 141.934C45.0232 141.209 44.6408 140.366 44.4888 139.402C44.3417 138.437 44.4398 137.438 44.7878 136.404C45.1457 135.346 45.6752 134.474 46.3812 133.794C47.0872 133.113 47.9059 132.672 48.8423 132.476C49.7738 132.275 50.7445 132.349 51.7544 132.687C52.5732 132.961 53.2546 133.382 53.8037 133.94L53.7988 133.945ZM48.7197 135.047C48.0579 135.483 47.5578 136.198 47.2195 137.202C46.8714 138.231 46.8322 139.113 47.1019 139.842C47.3715 140.577 47.95 141.091 48.8374 141.39C49.715 141.684 50.4749 141.615 51.122 141.189C51.7691 140.758 52.2594 140.043 52.6026 139.034C52.9507 138.006 52.9899 137.124 52.7301 136.385C52.4702 135.645 51.9064 135.136 51.0436 134.842C50.1562 134.543 49.3767 134.611 48.7148 135.042L48.7197 135.047Z" fill="white"/>
<path d="M32.1048 134.969L30.1633 133.475L33.3549 129.341L27.0208 131.055L24.6234 129.209L31.2713 127.48L30.9625 120.397L33.502 122.352L33.6001 129.018L36.7917 124.884L38.7527 126.392L32.1097 134.969H32.1048Z" fill="white"/>
<path d="M29.1975 119.017C29.3936 119.947 29.32 120.868 28.9867 121.784C28.6484 122.7 28.0699 123.532 27.2512 124.282C26.4226 125.041 25.5352 125.55 24.589 125.805C23.6428 126.06 22.7212 126.05 21.8142 125.771C20.9072 125.492 20.0983 124.968 19.3825 124.189C18.652 123.395 18.1912 122.533 17.9951 121.603C17.7989 120.672 17.8676 119.751 18.2059 118.835C18.5441 117.919 19.1177 117.082 19.9365 116.333C20.7601 115.578 21.6426 115.069 22.5888 114.819C23.535 114.569 24.4616 114.579 25.3735 114.853C26.2853 115.128 27.0992 115.662 27.8199 116.445C28.5454 117.234 29.0063 118.091 29.2024 119.022L29.1975 119.017ZM24.0154 117.043C23.2261 117.106 22.4466 117.498 21.6671 118.213C20.8778 118.938 20.4218 119.688 20.2944 120.462C20.1669 121.235 20.4218 121.965 21.0543 122.651C21.6916 123.346 22.4025 123.655 23.1771 123.586C23.9517 123.513 24.7312 123.116 25.5156 122.396C26.3099 121.666 26.7707 120.917 26.8933 120.143C27.0158 119.369 26.7658 118.649 26.1432 117.973C25.5107 117.288 24.8048 116.979 24.0154 117.043Z" fill="white"/>
<path d="M13.7887 117.096L12.5091 115.039L16.1468 112.781L13.5729 108.648L9.93522 110.906L8.65564 108.848L17.8725 103.123L19.1521 105.18L15.4997 107.448L18.0735 111.581L21.726 109.314L23.0055 111.371L13.7887 117.096Z" fill="white"/>
<path d="M15.8331 99.5524C15.6664 100.478 15.2595 101.296 14.6075 102.001C13.9554 102.712 13.1171 103.27 12.0973 103.676C11.0678 104.083 10.0726 104.24 9.10185 104.152C8.13604 104.063 7.27809 103.735 6.52799 103.162C5.77789 102.589 5.20429 101.801 4.81208 100.801C4.51302 100.042 4.37085 99.3026 4.39046 98.5826C4.41007 97.8626 4.58166 97.2014 4.90033 96.599C5.21899 95.9965 5.67984 95.4871 6.28286 95.0708L7.77325 97.0741C7.3026 97.4512 6.99374 97.9067 6.85156 98.4357C6.70448 98.9646 6.7339 99.4887 6.93981 100.003C7.27318 100.85 7.81737 101.374 8.57237 101.57C9.32737 101.766 10.1902 101.678 11.1658 101.301C12.1562 100.904 12.8523 100.375 13.2593 99.714C13.6662 99.0528 13.7054 98.3034 13.3769 97.4757C13.1465 96.8879 12.8278 96.4765 12.4258 96.2316C12.0238 95.9867 11.5188 95.879 10.9109 95.9084L10.5236 93.4055C11.6757 93.3125 12.6807 93.5476 13.5387 94.1108C14.3967 94.6741 15.0487 95.5165 15.4899 96.643C15.8919 97.6569 16.0047 98.6267 15.8429 99.5524H15.8331Z" fill="white"/>
<path d="M1.07135 86.2839L0.571289 83.9182L17.1617 86.6072L17.6274 88.8259L12.4601 88.0863L2.82158 94.5956L2.30191 92.1271L9.2783 87.5622L1.07135 86.2839Z" fill="white"/>
<path d="M9.24396 81.7386C9.23415 81.479 9.17042 81.2782 9.05276 81.1312C8.93509 80.9892 8.7635 80.8815 8.53798 80.8031C8.31247 80.7296 7.9987 80.661 7.59669 80.6023C6.76815 80.4847 5.7435 80.3966 4.52766 80.3378C3.31182 80.279 1.90477 80.23 0.306524 80.1957L0.00256348 72.2171L10.8471 71.8057L10.9403 74.2154L2.36562 74.5387L2.49799 77.9819C5.44445 78.1044 7.4251 78.2464 8.43993 78.3982C9.42535 78.5501 10.1509 78.8096 10.6167 79.1819C11.0824 79.5541 11.3325 80.1125 11.357 80.8619C11.3717 81.2439 11.3325 81.67 11.2442 82.1402L9.21454 82.2186C9.23906 82.0178 9.24886 81.8561 9.24396 81.7337V81.7386Z" fill="white"/>
<path d="M0.566409 65.7226L4.15021 66.2173L4.41985 64.2875C4.54242 63.401 4.66988 62.7544 4.80225 62.3528C5.47391 60.5014 6.76819 59.708 8.68511 59.9724C9.62151 60.0998 10.3422 60.4475 10.8521 61.0059C11.357 61.5643 11.6561 62.3087 11.7345 63.2295C11.7688 63.6557 11.7247 64.3267 11.5973 65.2475L10.9942 69.5919L0.233032 68.1176L0.566409 65.7226ZM9.76858 63.7634C9.71956 63.4401 9.56758 63.1463 9.31754 62.8867C9.06751 62.6271 8.73904 62.4655 8.34193 62.4116C7.92521 62.3528 7.55751 62.4165 7.23884 62.6026C6.92508 62.7887 6.69466 63.0532 6.56228 63.3912C6.45933 63.641 6.38089 63.9495 6.33186 64.312L6.0328 66.4817L9.43521 66.9519L9.73917 64.7822C9.7931 64.3903 9.8029 64.0524 9.76858 63.7634Z" fill="white"/>
<path d="M5.21396 53.664L4.12558 57.1219L2.07629 56.4754L4.98353 47.2527L7.03282 47.8992L5.94444 51.3571L14.2445 53.9677L13.5141 56.2746L5.21396 53.664Z" fill="white"/>
<path d="M12.6317 37.9367C12.9847 38.0592 13.4112 38.2502 13.9064 38.5L19.8483 41.5122L18.8874 43.4028L17.5882 42.7415C17.9216 43.4272 18.0785 44.1081 18.054 44.7791C18.0294 45.4501 17.8235 46.1652 17.4313 46.9292C17.0832 47.61 16.6567 48.1292 16.1518 48.4819C15.6468 48.8345 15.1075 49.0304 14.5339 49.0598C13.9603 49.0892 13.4063 48.9668 12.8621 48.6925C12.1512 48.33 11.6463 47.8549 11.3521 47.2525C11.0531 46.655 10.9648 45.9105 11.0874 45.0191C11.1658 44.5244 11.2933 43.9758 11.4796 43.3734C11.661 42.7709 11.9355 41.9187 12.3032 40.8118L12.4405 40.4101C11.8571 40.1653 11.357 40.1359 10.9305 40.3171C10.504 40.4983 10.1314 40.9146 9.80289 41.5611C9.55776 42.0362 9.4499 42.5309 9.47441 43.0305C9.49893 43.5301 9.69993 43.9758 10.0823 44.3578L8.46448 46.0133C7.7389 45.3374 7.31237 44.5342 7.18 43.6036C7.04763 42.673 7.26334 41.6542 7.82224 40.5522C8.27818 39.6559 8.81256 38.9653 9.43519 38.4706C10.0529 37.9759 10.7491 37.7359 11.5188 37.7408C11.9061 37.7408 12.2787 37.8045 12.6366 37.9318L12.6317 37.9367ZM14.2005 41.3407C13.872 42.3546 13.6416 43.0844 13.5093 43.5301C13.3769 43.9758 13.2837 44.3823 13.2347 44.7497C13.1808 45.2101 13.2053 45.5921 13.3082 45.8909C13.4112 46.1897 13.6122 46.415 13.9113 46.5668C14.2741 46.7529 14.6418 46.7676 15.0045 46.6109C15.3673 46.4541 15.6762 46.1309 15.9311 45.6313C16.1665 45.1709 16.289 44.7252 16.3037 44.2942C16.3184 43.8632 16.2547 43.4762 16.1174 43.1383C15.9802 42.8003 15.8086 42.526 15.5978 42.3203C15.3477 42.0265 14.882 41.7032 14.2005 41.3407Z" fill="white"/>
<path d="M26.4179 32.5981L20.8632 39.8078L12.2592 33.1956L13.7348 31.2756L20.5396 36.5066L23.3341 32.8772L16.5293 27.6463L18.005 25.7263L24.903 31.0307L26.1825 29.3655L29.6977 32.0642L28.222 33.9842L26.413 32.5932L26.4179 32.5981Z" fill="white"/>
<path d="M35.7179 23.8307L33.9824 25.3686L29.2808 20.074L30.1143 28.7922L28.6631 30.0755L21.4612 21.9597L23.1967 20.4217L27.7757 25.5841L27.0747 16.9834L28.5111 15.71L35.713 23.8258L35.7179 23.8307Z" fill="white"/>
<path d="M43.4101 18.7418C42.6257 18.7663 41.8707 18.59 41.1451 18.2177C40.4195 17.8455 39.7626 17.2822 39.189 16.5279L37.3407 17.5467L39.3851 21.2348L37.2672 22.4054L32.0165 12.9182L34.1344 11.7476L36.1788 15.4357L38.0271 14.417C37.6888 13.5157 37.5564 12.6586 37.63 11.8456C37.7035 11.0325 37.9633 10.2978 38.4095 9.64641C38.8556 8.99499 39.4586 8.45622 40.2234 8.035C41.1451 7.52562 42.0766 7.29052 43.0277 7.3248C43.9788 7.35909 44.8564 7.64807 45.6702 8.18683C46.484 8.7305 47.1557 9.47498 47.6803 10.4301C48.2196 11.4096 48.5039 12.3892 48.5333 13.3688C48.5578 14.3484 48.3323 15.2496 47.847 16.0724C47.3665 16.8953 46.6556 17.5614 45.7241 18.0757C44.9691 18.492 44.1994 18.7124 43.415 18.7369L43.4101 18.7418ZM46.0232 14.2504C46.1507 13.4668 45.9546 12.6145 45.4447 11.6888C44.9201 10.7386 44.2926 10.1166 43.5719 9.82273C42.8512 9.52886 42.0766 9.60722 41.2579 10.0578C40.4489 10.5035 39.9832 11.1109 39.8655 11.8749C39.7479 12.639 39.944 13.4913 40.4587 14.4219C40.9833 15.372 41.606 15.999 42.3266 16.3026C43.0473 16.6063 43.8072 16.5426 44.6014 16.1018C45.4202 15.6463 45.8957 15.0292 46.0232 14.2504Z" fill="white"/>
</svg>
