<svg width="144" height="145" viewBox="0 0 144 145" fill="none" xmlns="http://www.w3.org/2000/svg">
<path d="M42.1158 16.9767C41.2581 16.9014 40.4907 16.6004 39.7985 16.0737C39.1064 15.5469 38.5346 14.8546 38.0982 13.9666C37.6618 13.0787 37.4512 12.2057 37.4512 11.3328C37.4512 10.4599 37.707 9.66226 38.1584 8.92479C38.6098 8.18733 39.2869 7.61542 40.1597 7.17897C40.8368 6.84786 41.5139 6.65221 42.176 6.62211C42.838 6.57696 43.455 6.69736 44.0418 6.95321C44.6136 7.20907 45.1252 7.61542 45.5465 8.14218L43.6355 9.81276C43.2894 9.4365 42.8832 9.1957 42.4468 9.09035C41.9954 9.00005 41.5741 9.0452 41.1678 9.2559C40.5057 9.587 40.1145 10.0686 40.0092 10.7007C39.9038 11.3328 40.0543 12.0402 40.4305 12.8078C40.8217 13.5904 41.3032 14.1171 41.875 14.4181C42.4468 14.7041 43.0637 14.689 43.7108 14.373C44.1923 14.1322 44.5083 13.8462 44.6587 13.5001C44.8243 13.1539 44.8543 12.7175 44.7641 12.2208L47.2468 11.5736C47.4575 12.6272 47.3522 13.5753 46.9007 14.4181C46.4644 15.2609 45.7271 15.9382 44.7189 16.4349C43.8311 16.8713 42.9735 17.0519 42.1158 16.9917V16.9767Z" fill="white"/>
<path d="M46.3438 4.69562L48.7212 3.92805L50.1657 8.39798L51.866 2.91969L54.7551 1.98657L52.9043 7.70566L57.9752 11.1973L54.9356 12.1756L50.2861 8.74413L51.7306 13.2141L49.3381 13.9816L46.3588 4.69562H46.3438Z" fill="white"/>
<path d="M64.7308 2.81431C64.8361 3.13037 64.9264 3.56683 65.0016 4.09358L65.9646 9.97823L63.843 10.3244L63.6474 9.15047C63.3013 9.73743 62.895 10.1739 62.4135 10.4899C61.9471 10.806 61.3301 11.0167 60.5928 11.1371C59.9307 11.2424 59.3289 11.2123 58.8022 11.0317C58.2756 10.8511 57.8542 10.5652 57.5232 10.1588C57.1922 9.75248 56.9966 9.28592 56.9063 8.74411C56.7859 8.03675 56.8611 7.41969 57.1019 6.89293C57.3577 6.35112 57.8241 5.89961 58.5314 5.49326C58.9226 5.2675 59.4041 5.0568 59.9909 4.8461C60.5778 4.63539 61.4204 4.36449 62.5188 4.00328C62.3985 3.56683 62.1728 3.25077 61.8568 3.08522C61.5408 2.91967 61.1044 2.88956 60.5326 2.97987C60.1264 3.04007 59.7502 3.20562 59.4191 3.46147C59.0881 3.71733 58.8774 4.04843 58.8022 4.46984L56.5 4.13874C56.6204 3.26582 56.9815 2.52836 57.5834 1.9414C58.2003 1.35444 59.058 0.963134 60.1715 0.782531C62.0674 0.466476 63.4217 0.842732 64.2192 1.9113C64.4449 2.19725 64.6104 2.51331 64.7007 2.82936L64.7308 2.81431ZM62.8499 5.95981C62.0373 6.24577 61.4354 6.45647 61.0593 6.60698C60.6831 6.75748 60.3671 6.90798 60.1113 7.04343C59.7803 7.23909 59.5546 7.44979 59.4342 7.64544C59.3138 7.8411 59.2536 8.06685 59.2988 8.30765C59.3589 8.63876 59.5094 8.86451 59.7803 9.01501C60.0511 9.16552 60.3972 9.19562 60.8185 9.13542C61.2248 9.07521 61.5709 8.93976 61.8568 8.74411C62.1427 8.54846 62.3533 8.33775 62.5188 8.112C62.6693 7.88625 62.7746 7.67554 62.8348 7.49494C62.9402 7.14878 62.9402 6.65213 62.8348 5.95981H62.8499Z" fill="white"/>
<path d="M71.7123 7.05856C71.306 7.14887 70.8697 7.20907 70.4333 7.20907C69.4251 7.22412 68.6276 7.01341 68.0258 6.56191C67.4239 6.1104 67.0326 5.46324 66.837 4.59032C66.7317 4.09367 66.6715 3.43146 66.6565 2.58864L66.6113 0.150502L69.1091 0.105352L69.1543 2.54349C69.1543 3.0853 69.2145 3.52176 69.3048 3.85286C69.4251 4.27427 69.6057 4.57527 69.8766 4.75588C70.1474 4.93648 70.5236 5.02678 71.0051 5.01173C71.7273 5.01173 72.3292 4.80103 72.8258 4.40972L72.7505 0.0451507L75.2183 0L75.3838 9.75256L72.9161 9.79771L72.8709 6.63716C72.5248 6.81776 72.1487 6.95321 71.7424 7.04351L71.7123 7.05856Z" fill="white"/>
<path d="M85.9327 3.83792C85.9327 4.16903 85.8875 4.60549 85.8123 5.13225L84.9697 11.0319L82.848 10.7309L83.0135 9.55702C82.517 10.0085 81.9903 10.3095 81.4486 10.46C80.9069 10.6105 80.2599 10.6406 79.5226 10.5353C78.8605 10.445 78.3038 10.2343 77.8524 9.90317C77.401 9.57207 77.085 9.16571 76.8894 8.6841C76.6938 8.2025 76.6486 7.69079 76.7239 7.14898C76.8292 6.44162 77.0699 5.86971 77.4762 5.43325C77.8674 4.99679 78.4693 4.69579 79.2518 4.53024C79.6881 4.43993 80.2148 4.37973 80.8317 4.34963C81.4486 4.31953 82.3364 4.30448 83.495 4.30448C83.5101 3.83792 83.3897 3.49177 83.1339 3.23591C82.8781 2.98006 82.4718 2.81451 81.9001 2.73926C81.4938 2.67906 81.0875 2.72421 80.6812 2.85966C80.275 2.99511 79.9891 3.26601 79.7935 3.64227L77.7019 2.6339C78.0781 1.83624 78.6348 1.24928 79.3872 0.857976C80.1395 0.466669 81.0875 0.361318 82.201 0.52687C84.0969 0.797775 85.2706 1.56534 85.722 2.81451C85.8424 3.16066 85.9176 3.50682 85.9026 3.83792H85.9327ZM83.1941 6.27606C82.3364 6.30616 81.7044 6.32121 81.2982 6.35132C80.8919 6.38142 80.5458 6.42657 80.2599 6.48677C79.8837 6.57707 79.6129 6.69747 79.4323 6.86302C79.2518 7.01353 79.1464 7.20918 79.1013 7.46503C79.0562 7.79614 79.1464 8.06704 79.3571 8.2928C79.5678 8.51855 79.8837 8.654 80.3201 8.7142C80.7264 8.7744 81.1026 8.7443 81.4336 8.654C81.7646 8.54865 82.0355 8.4132 82.2461 8.24765C82.4568 8.08209 82.6223 7.91654 82.7276 7.75099C82.9233 7.44998 83.0888 6.96838 83.1941 6.29111V6.27606Z" fill="white"/>
<path d="M90.7317 4.78601L87.6621 3.86795L88.279 1.79102L96.7656 4.31946L96.1487 6.39639L93.0791 5.47833L90.9123 12.7476L88.5649 12.0402L90.7317 4.77096V4.78601Z" fill="white"/>
<path d="M100.995 6.15541L99.6859 8.96981L101.115 9.63202C101.883 9.99322 102.424 10.2792 102.74 10.5049C104.17 11.6036 104.501 12.9581 103.764 14.5534C103.403 15.3361 102.906 15.8779 102.274 16.1638C101.642 16.4498 100.905 16.51 100.047 16.3294C99.6708 16.2541 99.099 16.0284 98.3016 15.6521L94.6602 13.9514L98.7831 5.11694L101.01 6.15541H100.995ZM100.062 14.2976C100.333 14.3427 100.604 14.2976 100.875 14.1471C101.145 13.9966 101.356 13.7859 101.492 13.515C101.627 13.214 101.672 12.913 101.597 12.612C101.522 12.311 101.386 12.0551 101.161 11.8745C100.995 11.724 100.784 11.6036 100.544 11.4832L98.8733 10.7006L97.6696 13.2892L99.3398 14.0718C99.5956 14.1922 99.8364 14.2675 100.062 14.3126V14.2976Z" fill="white"/>
<path d="M111.498 11.724L118.465 16.9314L112.626 24.7425L110.655 23.2676L115.109 17.2926L112.07 15.02L107.616 20.995L105.645 19.5201L111.483 11.709L111.498 11.724Z" fill="white"/>
<path d="M125.432 24.3665C125.597 25.1792 125.537 25.9919 125.236 26.8046C124.935 27.6174 124.439 28.3699 123.717 29.0622C123.024 29.7394 122.257 30.206 121.429 30.4769C120.602 30.7478 119.789 30.793 118.992 30.6124C118.194 30.4318 117.487 30.0254 116.885 29.3933C116.268 28.7461 115.877 28.0538 115.727 27.2863L112.356 30.5371L110.641 28.7461L120.797 18.9785L122.302 20.5437L121.911 20.92C122.784 21.0404 123.551 21.4618 124.243 22.1692C124.875 22.8314 125.281 23.5688 125.447 24.3665H125.432ZM119.985 28.2495C120.647 28.1441 121.294 27.7829 121.926 27.1809C122.332 26.7896 122.633 26.3832 122.829 25.9468C123.024 25.5103 123.1 25.0739 123.039 24.6374C122.979 24.201 122.769 23.7946 122.407 23.4033C121.896 22.8765 121.324 22.6658 120.707 22.7712C120.09 22.8916 119.443 23.2678 118.781 23.8999C117.352 25.2695 117.171 26.4886 118.194 27.5722C118.721 28.114 119.323 28.3398 119.985 28.2344V28.2495Z" fill="white"/>
<path d="M124.499 34.0738C124.409 34.6006 124.559 35.1424 124.935 35.6842C125.206 36.0755 125.522 36.3464 125.898 36.512C126.274 36.6775 126.666 36.7227 127.102 36.6474L127.915 39.0705C127.298 39.206 126.696 39.206 126.094 39.0856C125.492 38.9652 124.935 38.7394 124.439 38.3933C123.942 38.0471 123.506 37.6257 123.145 37.0989C122.588 36.2862 122.257 35.4434 122.182 34.5705C122.091 33.6976 122.242 32.8698 122.633 32.0722C123.024 31.2896 123.611 30.6123 124.394 30.0705C125.251 29.4685 126.139 29.1223 127.027 29.017C127.915 28.9116 128.757 29.032 129.54 29.4083C130.322 29.7845 130.984 30.3564 131.526 31.1391C132.053 31.9066 132.353 32.7043 132.399 33.5019C132.444 34.3147 132.263 35.0822 131.842 35.8197C131.421 36.5571 130.789 37.2194 129.946 37.8063C129.811 37.8966 129.6 38.0321 129.314 38.1976L125.417 32.5688C124.89 33.0354 124.589 33.5471 124.499 34.0738ZM126.952 31.5906L129.389 35.1274C129.886 34.6909 130.157 34.2545 130.232 33.818C130.292 33.3815 130.157 32.93 129.826 32.4334C129.088 31.3648 128.14 31.0789 126.952 31.5906Z" fill="white"/>
<path d="M133.091 45.8279C132.835 46.159 132.504 46.4149 132.083 46.6256C131.481 46.9266 130.879 47.0169 130.292 46.9115C129.705 46.8062 129.149 46.5202 128.667 46.0838C128.171 45.6473 127.764 45.0905 127.433 44.4282C127.027 43.6155 126.816 42.7727 126.816 41.9149C126.816 41.057 126.997 40.2744 127.388 39.5971L129.42 40.7409C129.073 41.7192 129.104 42.6072 129.48 43.3898C129.69 43.8262 129.961 44.1122 130.262 44.2627C130.578 44.4132 130.879 44.4132 131.195 44.2627C131.526 44.0971 131.677 43.8714 131.662 43.5854C131.647 43.2995 131.526 42.9232 131.3 42.4717L131.015 41.9299L130.759 41.4182L132.474 40.5603L132.73 41.072C132.91 41.4332 133.076 41.7192 133.211 41.9299C133.362 42.1406 133.512 42.2911 133.693 42.3664C133.873 42.4416 134.069 42.4266 134.31 42.3212C134.596 42.1858 134.746 41.9751 134.776 41.7042C134.806 41.4332 134.731 41.1322 134.581 40.8162C134.4 40.455 134.144 40.1239 133.783 39.8078C133.422 39.4918 133.046 39.2209 132.625 38.9951L133.527 37.0386C134.22 37.3396 134.837 37.7309 135.378 38.2125C135.92 38.6941 136.356 39.266 136.672 39.9132C136.958 40.4851 137.124 41.072 137.169 41.674C137.214 42.2761 137.124 42.8179 136.868 43.3145C136.612 43.8112 136.221 44.2025 135.649 44.4884C135.017 44.8045 134.34 44.8948 133.603 44.7443C133.512 45.1507 133.332 45.5119 133.076 45.843L133.091 45.8279Z" fill="white"/>
<path d="M133.195 50.7494C132.954 51.231 132.939 51.7879 133.15 52.4049C133.3 52.8564 133.526 53.2176 133.827 53.4735C134.128 53.7293 134.504 53.8949 134.941 53.94L135.031 56.4986C134.399 56.4534 133.812 56.2728 133.27 55.9869C132.729 55.7009 132.262 55.3247 131.886 54.8431C131.495 54.3614 131.209 53.8347 131.013 53.2327C130.712 52.2996 130.637 51.3965 130.818 50.5387C130.983 49.6808 131.374 48.9283 131.961 48.2811C132.548 47.634 133.315 47.1674 134.233 46.8664C135.226 46.5504 136.174 46.4601 137.062 46.6106C137.95 46.7611 138.717 47.1223 139.364 47.7092C140.011 48.2811 140.478 49.0337 140.779 49.9367C141.065 50.8246 141.125 51.6674 140.944 52.4501C140.764 53.2327 140.358 53.925 139.756 54.5119C139.139 55.0989 138.341 55.5504 137.363 55.8665C137.213 55.9116 136.972 55.9869 136.641 56.0621L134.534 49.5454C133.902 49.8464 133.466 50.2377 133.225 50.7193L133.195 50.7494ZM136.265 49.0788L137.589 53.1725C138.191 52.8865 138.582 52.5554 138.763 52.1641C138.943 51.7728 138.943 51.2912 138.763 50.7193C138.371 49.4852 137.529 48.9434 136.265 49.0788Z" fill="white"/>
<path d="M142.449 56.8596L142.81 59.2827L139.138 59.8396L139.725 63.7978L143.412 63.2409L143.773 65.664L134.127 67.1088L133.766 64.6857L137.468 64.1289L136.881 60.1707L133.179 60.7275L132.818 58.3044L142.464 56.8596H142.449Z" fill="white"/>
<path d="M141.757 71.1274L141.802 67.9368L143.969 67.9669L143.819 76.8164L141.652 76.7863L141.697 73.5957L134.113 73.4753L134.158 71.0221L141.742 71.1425L141.757 71.1274Z" fill="white"/>
<path d="M140.071 86.3132C139.74 86.3132 139.304 86.268 138.777 86.1927L132.879 85.3198L133.195 83.1978L134.369 83.3784C133.917 82.8666 133.616 82.3549 133.466 81.7981C133.315 81.2563 133.3 80.6091 133.406 79.8716C133.511 79.2094 133.722 78.6526 134.053 78.2011C134.384 77.7496 134.79 77.4335 135.271 77.2529C135.753 77.0723 136.265 77.0121 136.806 77.0873C137.513 77.1927 138.07 77.4486 138.507 77.8399C138.943 78.2312 139.244 78.8332 139.394 79.6308C139.485 80.0673 139.545 80.5941 139.56 81.2111C139.575 81.8282 139.59 82.7161 139.59 83.875C140.056 83.8901 140.402 83.7847 140.658 83.5289C140.914 83.273 141.08 82.8666 141.17 82.2947C141.23 81.8884 141.2 81.482 141.065 81.0757C140.929 80.6844 140.673 80.3834 140.282 80.1877L141.305 78.0957C142.103 78.472 142.69 79.0439 143.066 79.7964C143.442 80.564 143.547 81.4971 143.382 82.6258C143.096 84.5222 142.328 85.6961 141.08 86.1325C140.733 86.253 140.387 86.3132 140.056 86.3132H140.071ZM137.649 83.559C137.634 82.7011 137.604 82.069 137.589 81.6626C137.574 81.2563 137.513 80.9101 137.453 80.6242C137.363 80.2479 137.243 79.977 137.092 79.7964C136.942 79.6158 136.746 79.4954 136.49 79.4653C136.159 79.4201 135.888 79.4954 135.663 79.7061C135.437 79.9168 135.301 80.2329 135.226 80.6543C135.166 81.0606 135.181 81.4369 135.286 81.768C135.392 82.0991 135.527 82.37 135.693 82.5957C135.858 82.8064 136.024 82.972 136.189 83.0773C136.475 83.273 136.972 83.4386 137.649 83.5439V83.559Z" fill="white"/>
<path d="M130.127 94.3348L132.625 86.614L141.909 89.609L141.156 91.9418L134.054 89.6542L132.896 93.2662L139.998 95.5539L139.245 97.8866L132.023 95.5539L131.451 97.3298L127.328 95.9903L128.08 93.6575L130.142 94.3197L130.127 94.3348Z" fill="white"/>
<path d="M125.086 104.659L126.169 102.582L131.451 105.352L128.216 98.6844L129.119 96.9536L137.756 101.484L136.672 103.561L131.571 100.882L134.626 107.474L133.723 109.189L125.086 104.659Z" fill="white"/>
<path d="M120.39 111.341C121.022 111.055 121.699 110.935 122.421 110.98C123.144 111.025 123.866 111.251 124.588 111.657L125.777 110.183L122.948 107.88L124.498 105.969L132.082 112.109L130.532 114.02L127.703 111.718L126.514 113.193C127.071 113.825 127.447 114.502 127.643 115.194C127.838 115.887 127.853 116.579 127.688 117.256C127.522 117.933 127.206 118.566 126.725 119.168C126.123 119.905 125.416 120.417 124.618 120.718C123.821 121.019 122.963 121.079 122.105 120.913C121.233 120.748 120.42 120.357 119.668 119.739C118.885 119.107 118.329 118.385 117.982 117.557C117.636 116.744 117.531 115.902 117.667 115.044C117.802 114.186 118.163 113.388 118.78 112.636C119.246 112.049 119.803 111.612 120.435 111.326L120.39 111.341ZM120.014 115.947C120.164 116.579 120.571 117.181 121.248 117.723C121.94 118.28 122.617 118.566 123.249 118.566C123.896 118.566 124.468 118.28 124.949 117.678C125.431 117.076 125.596 116.474 125.446 115.857C125.295 115.239 124.874 114.652 124.197 114.096C123.505 113.524 122.828 113.238 122.181 113.238C121.534 113.238 120.977 113.509 120.51 114.096C120.029 114.698 119.863 115.315 119.999 115.947H120.014Z" fill="white"/>
<path d="M117.035 124.18L111.032 128.815L109.873 127.31L115.877 122.675L117.035 124.18Z" fill="white"/>
<path d="M102.003 126.964C102.861 127.039 103.629 127.325 104.321 127.852C105.013 128.378 105.585 129.071 106.021 129.959C106.457 130.847 106.683 131.72 106.668 132.593C106.653 133.465 106.427 134.263 105.961 135.001C105.494 135.723 104.832 136.31 103.96 136.746C103.282 137.093 102.605 137.273 101.943 137.318C101.281 137.363 100.664 137.243 100.077 136.987C99.5056 136.731 98.994 136.34 98.5727 135.813L100.484 134.128C100.83 134.504 101.236 134.745 101.687 134.85C102.139 134.94 102.56 134.895 102.966 134.685C103.628 134.353 104.02 133.872 104.11 133.225C104.215 132.593 104.065 131.885 103.689 131.118C103.297 130.335 102.816 129.808 102.244 129.522C101.672 129.236 101.055 129.251 100.408 129.582C99.942 129.823 99.626 130.109 99.4605 130.455C99.2949 130.802 99.2648 131.238 99.3551 131.735L96.8724 132.397C96.6617 131.343 96.767 130.395 97.2034 129.552C97.6398 128.71 98.362 128.032 99.3852 127.521C100.273 127.084 101.131 126.889 101.988 126.964H102.003Z" fill="white"/>
<path d="M97.8041 139.26L95.4266 140.028L93.9671 135.558L92.2818 141.051L89.3928 141.984L91.2285 136.25L86.1426 132.773L89.1821 131.78L93.8467 135.196L92.3871 130.726L94.7796 129.944L97.774 139.23L97.8041 139.26Z" fill="white"/>
<path d="M79.4183 141.171C79.3129 140.855 79.2226 140.419 79.1324 139.892L78.1543 134.007L80.2759 133.646L80.4716 134.82C80.8176 134.233 81.2239 133.797 81.6904 133.481C82.1568 133.165 82.7738 132.954 83.5111 132.834C84.1731 132.728 84.775 132.758 85.3017 132.939C85.8283 133.12 86.2496 133.405 86.5807 133.812C86.9117 134.218 87.1224 134.685 87.2127 135.227C87.333 135.919 87.2578 136.551 87.017 137.078C86.7763 137.62 86.2948 138.086 85.5876 138.477C85.1963 138.703 84.7148 138.914 84.128 139.125C83.5412 139.335 82.7136 139.621 81.6001 139.967C81.7205 140.404 81.9462 140.72 82.2622 140.885C82.5781 141.051 83.0145 141.081 83.5863 140.991C83.9926 140.916 84.3687 140.765 84.6998 140.509C85.0308 140.253 85.2415 139.922 85.3017 139.501L87.6039 139.832C87.4985 140.705 87.1374 141.442 86.5205 142.029C85.9036 142.616 85.0459 143.023 83.9324 143.203C82.0364 143.519 80.6822 143.143 79.8847 142.089C79.659 141.803 79.4935 141.487 79.4032 141.171H79.4183ZM81.2991 138.026C82.1117 137.74 82.7136 137.529 83.0897 137.379C83.4659 137.228 83.7819 137.078 84.0377 136.942C84.3687 136.747 84.5945 136.536 84.7148 136.34C84.8352 136.145 84.8804 135.919 84.8503 135.678C84.7901 135.347 84.6396 135.121 84.3537 134.971C84.0829 134.82 83.7368 134.79 83.3155 134.85C82.9092 134.91 82.5631 135.046 82.2772 135.242C81.9913 135.437 81.7806 135.648 81.6151 135.874C81.4647 136.099 81.3593 136.31 81.2991 136.491C81.1938 136.837 81.1938 137.334 81.2991 138.026Z" fill="white"/>
<path d="M72.4195 136.957C72.8258 136.867 73.2622 136.807 73.6985 136.807C74.7067 136.792 75.5042 137.002 76.1061 137.454C76.708 137.905 77.0992 138.552 77.2948 139.425C77.4001 139.922 77.4603 140.584 77.4754 141.427L77.5205 143.865L75.0227 143.91L74.9775 141.472C74.9775 140.93 74.9174 140.494 74.8271 140.163C74.7067 139.741 74.5261 139.44 74.2553 139.26C73.9844 139.079 73.6083 138.989 73.1268 139.004C72.4045 139.004 71.8026 139.215 71.3061 139.606L71.3813 143.971L68.9136 144.016L68.748 134.263L71.2158 134.218L71.2609 137.379C71.607 137.198 71.9832 137.063 72.3894 136.972L72.4195 136.957Z" fill="white"/>
<path d="M58.2305 140.208C58.2305 139.877 58.2756 139.441 58.3508 138.899L59.1784 132.999L61.3001 133.3L61.1346 134.474C61.6311 134.022 62.1578 133.721 62.6995 133.556C63.2412 133.405 63.8882 133.375 64.6255 133.481C65.2876 133.571 65.8443 133.782 66.2957 134.113C66.7471 134.444 67.0631 134.85 67.2587 135.332C67.4543 135.813 67.5145 136.325 67.4242 136.867C67.3189 137.574 67.0782 138.146 66.6869 138.583C66.2957 139.019 65.6938 139.32 64.9114 139.486C64.475 139.576 63.9484 139.636 63.3314 139.666C62.7145 139.696 61.8267 139.711 60.6681 139.711C60.6531 140.178 60.7734 140.524 61.0292 140.78C61.285 141.036 61.6913 141.201 62.2631 141.277C62.6694 141.337 63.0756 141.292 63.4669 141.156C63.8581 141.021 64.159 140.75 64.3546 140.374L66.4612 141.382C66.1001 142.18 65.5283 142.767 64.776 143.158C64.0236 143.549 63.0756 143.655 61.9621 143.504C60.0662 143.233 58.8775 142.481 58.4411 141.216C58.3208 140.87 58.2455 140.524 58.2455 140.193L58.2305 140.208ZM60.969 137.77C61.8267 137.74 62.4587 137.725 62.865 137.695C63.2712 137.665 63.6173 137.619 63.9032 137.559C64.2794 137.469 64.5502 137.349 64.7308 137.183C64.9114 137.032 65.0167 136.837 65.0619 136.581C65.107 136.25 65.0167 135.979 64.8061 135.753C64.5954 135.527 64.2644 135.392 63.843 135.332C63.4368 135.272 63.0606 135.302 62.7296 135.392C62.3985 135.497 62.1277 135.633 61.917 135.798C61.7063 135.964 61.5408 136.129 61.4355 136.295C61.2399 136.596 61.0894 137.078 60.9841 137.755L60.969 137.77Z" fill="white"/>
<path d="M53.4167 139.275L56.4863 140.178L55.8694 142.255L47.3828 139.756L47.9997 137.679L51.0694 138.583L53.2211 131.313L55.5684 132.006L53.4167 139.275Z" fill="white"/>
<path d="M43.1382 137.92L44.4473 135.106L43.0178 134.444C42.2354 134.083 41.6937 133.797 41.3927 133.571C39.9632 132.472 39.6172 131.133 40.3695 129.522C40.7306 128.74 41.2272 128.198 41.8441 127.912C42.4611 127.626 43.2134 127.566 44.0711 127.746C44.4473 127.822 45.0191 128.047 45.8166 128.409L49.473 130.109L45.3651 138.959L43.1382 137.92ZM44.041 129.778C43.7702 129.733 43.4993 129.778 43.2285 129.929C42.9576 130.079 42.747 130.29 42.6115 130.561C42.4761 130.862 42.431 131.163 42.5062 131.464C42.5814 131.765 42.7169 132.021 42.9426 132.201C43.1081 132.337 43.3187 132.472 43.5595 132.593L45.2297 133.375L46.4335 130.787L44.7633 130.004C44.5075 129.884 44.2667 129.808 44.041 129.763V129.778Z" fill="white"/>
<path d="M32.6361 132.367L25.6543 127.175L31.4775 119.348L33.4487 120.808L28.9948 126.798L32.0343 129.056L36.4882 123.066L38.4594 124.526L32.6361 132.352V132.367Z" fill="white"/>
<path d="M18.6731 119.755C18.5075 118.942 18.5677 118.129 18.8536 117.317C19.1546 116.504 19.6511 115.751 20.3583 115.059C21.0505 114.382 21.8179 113.915 22.6455 113.644C23.4731 113.374 24.2856 113.328 25.0831 113.509C25.8806 113.69 26.5878 114.096 27.1897 114.728C27.8067 115.375 28.1979 116.068 28.3634 116.835L31.7339 113.584L33.4493 115.36L23.3226 125.143L21.8179 123.578L22.2091 123.201C21.3364 123.081 20.569 122.66 19.8768 121.952C19.2449 121.29 18.8386 120.568 18.6731 119.755ZM24.1201 115.857C23.458 115.962 22.811 116.323 22.179 116.925C21.7728 117.317 21.4718 117.723 21.2762 118.16C21.0806 118.596 21.0054 119.032 21.0656 119.469C21.1257 119.905 21.3364 120.312 21.7126 120.703C22.2242 121.23 22.796 121.44 23.4129 121.335C24.0298 121.23 24.6769 120.838 25.3389 120.191C26.7534 118.822 26.949 117.603 25.9107 116.519C25.3841 115.977 24.7822 115.751 24.1201 115.857Z" fill="white"/>
<path d="M19.5745 110.047C19.6648 109.521 19.5143 108.979 19.1381 108.437C18.8673 108.046 18.5513 107.775 18.1751 107.609C17.7989 107.444 17.4077 107.399 16.9713 107.489L16.1438 105.066C16.7607 104.93 17.3626 104.915 17.9645 105.036C18.5663 105.156 19.1231 105.382 19.6196 105.728C20.1162 106.074 20.5676 106.496 20.9137 107.007C21.4704 107.82 21.8015 108.663 21.8918 109.536C21.982 110.409 21.8316 111.236 21.4554 112.034C21.0792 112.817 20.4924 113.494 19.6949 114.036C18.8372 114.638 17.9645 114.984 17.0616 115.104C16.1739 115.21 15.3312 115.089 14.5488 114.728C13.7663 114.367 13.1042 113.795 12.5475 112.997C12.0058 112.23 11.7199 111.432 11.6597 110.634C11.5995 109.822 11.7801 109.054 12.2014 108.317C12.6227 107.579 13.2547 106.917 14.0974 106.33C14.2328 106.24 14.4434 106.104 14.7293 105.939L18.6265 111.568C19.1532 111.101 19.4541 110.589 19.5294 110.063L19.5745 110.047ZM17.1369 112.546L14.6842 109.009C14.1876 109.445 13.9168 109.882 13.8566 110.318C13.7964 110.755 13.9318 111.206 14.2629 111.703C15.0002 112.772 15.9632 113.042 17.1369 112.546Z" fill="white"/>
<path d="M10.9681 98.3231C11.2239 97.992 11.555 97.7362 11.9612 97.5255C12.5631 97.2245 13.165 97.1342 13.7518 97.2395C14.3387 97.3449 14.8954 97.6158 15.392 98.0673C15.8885 98.5037 16.2948 99.0606 16.6258 99.7228C17.0321 100.536 17.2428 101.378 17.2578 102.236C17.2578 103.094 17.0772 103.862 16.686 104.554L14.6547 103.41C15.0007 102.417 14.9706 101.544 14.5794 100.761C14.3688 100.325 14.0979 100.039 13.797 99.8884C13.496 99.7379 13.18 99.7379 12.864 99.8884C12.533 100.054 12.3825 100.28 12.3976 100.566C12.4126 100.852 12.533 101.228 12.7587 101.679L13.0446 102.221L13.3004 102.733L11.585 103.591L11.3292 103.079C11.1487 102.718 10.9832 102.432 10.8327 102.221C10.6822 102.01 10.5317 101.86 10.3512 101.785C10.1706 101.709 9.95996 101.724 9.73425 101.83C9.44836 101.965 9.29789 102.176 9.26779 102.447C9.2377 102.718 9.31293 103.019 9.4634 103.335C9.64397 103.696 9.91482 104.027 10.2609 104.343C10.607 104.659 10.9982 104.93 11.4195 105.156L10.5317 107.112C9.83958 106.811 9.22265 106.42 8.68096 105.939C8.13926 105.457 7.70289 104.885 7.37186 104.253C7.08596 103.681 6.92045 103.094 6.86026 102.492C6.80007 101.89 6.9054 101.348 7.1612 100.852C7.417 100.355 7.80822 99.9636 8.36497 99.6777C8.99694 99.3616 9.67406 99.2713 10.4114 99.4218C10.5017 99.0155 10.6672 98.6542 10.923 98.3231H10.9681Z" fill="white"/>
<path d="M10.8469 93.4018C11.0877 92.9202 11.1027 92.3633 10.8921 91.7463C10.7416 91.2947 10.5159 90.9335 10.215 90.6777C9.91401 90.4068 9.53783 90.2563 9.10146 90.2111L9.01118 87.6526C9.64316 87.6977 10.23 87.8633 10.7717 88.1492C11.3134 88.4352 11.7798 88.8115 12.156 89.2931C12.5472 89.7747 12.8331 90.3014 13.0288 90.9034C13.3297 91.8366 13.4049 92.7396 13.2394 93.5974C13.0739 94.4553 12.6827 95.2078 12.0958 95.855C11.509 96.5021 10.7416 96.9687 9.83877 97.2697C8.84566 97.6008 7.8977 97.6761 7.00992 97.5256C6.12214 97.375 5.35474 97.0138 4.70771 96.4419C4.06069 95.87 3.59423 95.1175 3.29328 94.2145C3.00739 93.3265 2.9472 92.4837 3.12777 91.7011C3.30833 90.9185 3.69956 90.2262 4.31649 89.6392C4.93342 89.0523 5.73091 88.6008 6.70898 88.2847C6.85945 88.2396 7.1002 88.1643 7.43124 88.089L9.55288 94.5908C10.1849 94.2897 10.6212 93.8984 10.862 93.4168L10.8469 93.4018ZM7.79237 95.0874L6.46822 90.9937C5.86634 91.2797 5.47511 91.6108 5.29455 92.0021C5.11398 92.3934 5.11398 92.875 5.29455 93.4469C5.70082 94.6811 6.52841 95.2229 7.80741 95.0874H7.79237Z" fill="white"/>
<path d="M1.57885 87.3063L1.20267 84.8832L4.87416 84.3263L4.27228 80.3681L0.600787 80.925L0.224609 78.5019L9.8698 77.042L10.246 79.4651L6.54439 80.0219L7.14627 83.9802L10.8479 83.4233L11.224 85.8464L1.57885 87.3063Z" fill="white"/>
<path d="M2.2256 72.9785L2.18045 76.1692L0.0136719 76.1391L0.149096 67.2896L2.31588 67.3197L2.25569 70.5103L9.83943 70.6307L9.79429 73.0839L2.21055 72.9635L2.2256 72.9785Z" fill="white"/>
<path d="M3.89607 57.7927C4.22711 57.7927 4.66347 57.8379 5.19012 57.9131L11.0886 58.771L10.7726 60.8931L9.59892 60.7275C10.0503 61.2242 10.3513 61.7509 10.5017 62.3078C10.6522 62.8647 10.6823 63.4968 10.5619 64.2342C10.4566 64.8964 10.2459 65.4533 9.91491 65.9048C9.58388 66.3563 9.1776 66.6724 8.6961 66.853C8.21459 67.0336 7.70299 67.0938 7.16129 67.0185C6.45408 66.9132 5.89734 66.6724 5.46097 66.266C5.0246 65.8747 4.72366 65.2727 4.55814 64.4901C4.46786 64.0536 4.40767 63.5269 4.37758 62.9098C4.36253 62.2927 4.34749 61.4048 4.34749 60.2459C3.89607 60.2309 3.53494 60.3513 3.27914 60.5921C3.02334 60.8329 2.85782 61.2543 2.78259 61.8111C2.7224 62.2175 2.76754 62.6239 2.90296 63.0302C3.03839 63.4215 3.29419 63.7225 3.68541 63.9182L2.66221 66.0102C1.86471 65.6339 1.27788 65.077 0.9017 64.3095C0.525522 63.5419 0.405146 62.6088 0.570664 61.48C0.841512 59.5837 1.60891 58.4098 2.87287 57.9733C3.21895 57.8529 3.56504 57.7927 3.89607 57.7927ZM6.31866 60.5469C6.3337 61.4048 6.3638 62.0369 6.39389 62.4433C6.42398 62.8496 6.46913 63.1958 6.52931 63.4817C6.6196 63.858 6.73997 64.1289 6.89045 64.3095C7.04092 64.4901 7.23653 64.5954 7.49233 64.6406C7.82337 64.6857 8.09421 64.6105 8.31992 64.3847C8.54563 64.174 8.68105 63.858 8.74124 63.4366C8.80143 63.0302 8.78638 62.654 8.68105 62.3229C8.57572 61.9917 8.4403 61.7208 8.27478 61.4951C8.10926 61.2844 7.94374 61.1188 7.77822 61.0135C7.49233 60.8178 6.99577 60.6523 6.31866 60.5469Z" fill="white"/>
<path d="M13.8123 49.8161L11.3446 57.5369L2.06055 54.5569L2.8129 52.2241L9.91513 54.4967L11.0738 50.8847L3.97153 48.6121L4.72388 46.2793L11.9465 48.597L12.5183 46.8211L16.6412 48.1455L15.8888 50.4783L13.8274 49.8161H13.8123Z" fill="white"/>
<path d="M18.8376 39.4617L17.7542 41.5386L12.4727 38.7844L15.7229 45.4517L14.8201 47.1825L6.16797 42.6824L7.25136 40.6055L12.3674 43.2694L9.29777 36.6774L10.1855 34.9617L18.8376 39.4617Z" fill="white"/>
<path d="M23.517 32.7795C22.885 33.0655 22.2079 33.2009 21.4856 33.1407C20.7634 33.0805 20.0411 32.8698 19.3188 32.4635L18.1301 33.9384L20.974 36.226L19.4392 38.1374L11.8555 32.012L13.3903 30.1006L16.2342 32.3882L17.4229 30.9133C16.8662 30.2812 16.49 29.619 16.2944 28.9116C16.0988 28.2193 16.0837 27.527 16.2492 26.8497C16.4147 26.1725 16.7307 25.5404 17.2122 24.9384C17.8141 24.2009 18.5063 23.6741 19.3188 23.3731C20.1314 23.0721 20.959 23.0119 21.8317 23.1775C22.7044 23.343 23.517 23.7343 24.2693 24.3514C25.0518 24.9835 25.6085 25.7059 25.9546 26.5186C26.3007 27.3314 26.406 28.1742 26.2706 29.032C26.1352 29.8899 25.774 30.6876 25.1721 31.4401C24.7057 32.027 24.1489 32.4635 23.517 32.7645V32.7795ZM23.8781 28.1742C23.7276 27.5421 23.3214 26.94 22.6442 26.3982C21.9521 25.8414 21.275 25.5554 20.6279 25.5554C19.9809 25.5554 19.4242 25.8564 18.9276 26.4434C18.4461 27.0454 18.2806 27.6474 18.4311 28.2645C18.5815 28.8815 19.0028 29.4685 19.68 30.0103C20.3721 30.5672 21.0492 30.8531 21.6963 30.8682C22.3433 30.8682 22.9 30.5973 23.3665 30.0103C23.848 29.4083 24.0135 28.7912 23.8631 28.1591L23.8781 28.1742Z" fill="white"/>
<path d="M26.8418 19.9415L32.8305 15.291L33.9892 16.796L28.0004 21.4466L26.8418 19.9415Z" fill="white"/>
</svg>
