<svg width="20" height="18" viewBox="0 0 20 18" fill="none" xmlns="http://www.w3.org/2000/svg">
<path d="M2 0.499939V-6.10352e-05H1.5V0.499939H2ZM18 0.499939H18.5V-6.10352e-05H18V0.499939ZM5 13.9999H4.5V14.4999H5V13.9999ZM5 3.99994V3.49994H4.5V3.99994H5ZM15 3.99994H15.5V3.49994H15V3.99994ZM15 13.9999V14.4999H15.5V13.9999H15ZM0 17.8334H20V16.8334H0V17.8334ZM10 -6.10352e-05H2V0.999939H10V-6.10352e-05ZM18 -6.10352e-05H10V0.999939H18V-6.10352e-05ZM1.5 0.499939V17.3334H2.5V0.499939H1.5ZM17.5 0.499939V17.3334H18.5V0.499939H17.5ZM5.5 13.9999V3.99994H4.5V13.9999H5.5ZM5 4.49994H11V3.49994H5V4.49994ZM11 4.49994H15V3.49994H11V4.49994ZM15 13.4999H11V14.4999H15V13.4999ZM11 13.4999H5V14.4999H11V13.4999ZM10.5 3.99994V8.99994H11.5V3.99994H10.5ZM10.5 8.99994V13.9999H11.5V8.99994H10.5ZM14.5 3.99994V8.99994H15.5V3.99994H14.5ZM14.5 8.99994V13.9999H15.5V8.99994H14.5ZM11 9.49994H15V8.49994H11V9.49994Z" fill="url(#paint0_linear_654_2825)"/>
<defs>
<linearGradient id="paint0_linear_654_2825" x1="0" y1="0.499939" x2="15.5349" y2="20.0201" gradientUnits="userSpaceOnUse">
<stop stop-color="#A0BA4F"/>
<stop offset="1" stop-color="#7A8E3B"/>
</linearGradient>
</defs>
</svg>
