<svg width="20" height="19" viewBox="0 0 20 19" fill="none" xmlns="http://www.w3.org/2000/svg">
<path d="M1 16.5172L0.567484 16.2664L0.5 16.3827V16.5172H1ZM10 1L10.4325 0.749141C10.3431 0.594925 10.1783 0.5 10 0.5C9.82172 0.5 9.65693 0.594925 9.56748 0.749141L10 1ZM19 16.5172H19.5V16.3827L19.4325 16.2664L19 16.5172ZM7.42857 10.931V10.431H6.92857V10.931H7.42857ZM12.5714 10.931H13.0714V10.431H12.5714V10.931ZM1.5 19V16.5172H0.5V19H1.5ZM1.43252 16.7681L10.4325 1.25086L9.56748 0.749141L0.567484 16.2664L1.43252 16.7681ZM9.56748 1.25086L18.5675 16.7681L19.4325 16.2664L10.4325 0.749141L9.56748 1.25086ZM18.5 16.5172V19H19.5V16.5172H18.5ZM7.92857 19V10.931H6.92857V19H7.92857ZM7.42857 11.431H12.5714V10.431H7.42857V11.431ZM12.0714 10.931V19H13.0714V10.931H12.0714ZM7.07143 15.5H9V14.5H7.07143V15.5ZM9.5 5.96552V7.82759H10.5V5.96552H9.5Z" fill="url(#paint0_linear_654_2829)"/>
<defs>
<linearGradient id="paint0_linear_654_2829" x1="1" y1="1" x2="18.0198" y2="19" gradientUnits="userSpaceOnUse">
<stop stop-color="#A0BA4F"/>
<stop offset="1" stop-color="#7A8E3B"/>
</linearGradient>
</defs>
</svg>
