<svg width="20" height="20" viewBox="0 0 20 20" fill="none" xmlns="http://www.w3.org/2000/svg">
<path d="M2 3.33335V2.83335C1.76166 2.83335 1.55645 3.00158 1.50971 3.2353L2 3.33335ZM18 3.33335L18.4903 3.2353C18.4435 3.00158 18.2383 2.83335 18 2.83335V3.33335ZM19.3333 10V10.5C19.4831 10.5 19.625 10.4329 19.72 10.317C19.815 10.2012 19.853 10.0488 19.8236 9.90196L19.3333 10ZM0.666667 10L0.176376 9.90196C0.146999 10.0488 0.185026 10.2012 0.279996 10.317C0.374965 10.4329 0.51687 10.5 0.666667 10.5V10ZM4.66667 14H4.16667V14.5H4.66667V14ZM15.3333 14V14.5H15.8333V14H15.3333ZM0 19.8334H20V18.8334H0V19.8334ZM1.5 10V19.3334H2.5V10H1.5ZM17.5 10V19.3334H18.5V10H17.5ZM2 3.83335H18V2.83335H2V3.83335ZM17.5097 3.43141L18.843 10.0981L19.8236 9.90196L18.4903 3.2353L17.5097 3.43141ZM19.3333 9.50002H0.666667V10.5H19.3333V9.50002ZM1.15696 10.0981L2.49029 3.43141L1.50971 3.2353L0.176376 9.90196L1.15696 10.0981ZM1.33333 1.16669H18.6667V0.166687H1.33333V1.16669ZM4.16667 10V14H5.16667V10H4.16667ZM4.66667 14.5H15.3333V13.5H4.66667V14.5ZM15.8333 14V10H14.8333V14H15.8333Z" fill="url(#paint0_linear_654_2833)"/>
<defs>
<linearGradient id="paint0_linear_654_2833" x1="0" y1="0.666687" x2="17.5407" y2="20.5426" gradientUnits="userSpaceOnUse">
<stop stop-color="#A0BA4F"/>
<stop offset="1" stop-color="#7A8E3B"/>
</linearGradient>
</defs>
</svg>
