<svg width="52" height="52" viewBox="0 0 52 52" fill="none" xmlns="http://www.w3.org/2000/svg">
<circle cx="26" cy="26" r="25" fill="white" stroke="url(#paint0_linear_327_1916)"/>
<path d="M25.3169 35.6726V17.9274H26.2872V35.6726H25.3169Z" fill="url(#paint1_linear_327_1916)" stroke="url(#paint2_linear_327_1916)" stroke-width="0.283704"/>
<path d="M19.3935 35.1867V35.6726H18.4204V28.0192H19.3935V35.1867Z" fill="url(#paint3_linear_327_1916)" stroke="url(#paint4_linear_327_1916)" stroke-width="0.283704"/>
<path d="M39.3491 22.55L26.0624 14.1482L25.9879 14.1011L25.9127 14.147L12.4623 22.3556L12.3943 22.3971V22.3996L12.1419 22.5527V21.4167L25.9966 12.959C30.4465 15.774 34.8964 18.589 39.3491 21.4012V22.55Z" fill="url(#paint5_linear_327_1916)" stroke="url(#paint6_linear_327_1916)" stroke-width="0.283704"/>
<path d="M30.4466 21.4929L25.8262 18.4616L25.7484 18.4106L25.6706 18.4616L21.3555 21.292L21.2914 21.3341V21.3366L21.0503 21.4938V20.3365C21.8359 19.8218 22.6207 19.3064 23.4056 18.7912L23.4063 18.7907C24.1868 18.2782 24.9673 17.7658 25.7484 17.254C26.5294 17.7657 27.3098 18.2781 28.0903 18.7905L28.0906 18.7907C28.8756 19.3061 29.6608 19.8216 30.4466 20.3365V21.4929Z" fill="url(#paint7_linear_327_1916)" stroke="url(#paint8_linear_327_1916)" stroke-width="0.283704"/>
<path d="M33.2804 35.1868V35.6727H32.3044V24.6346H33.2804V35.1868Z" fill="url(#paint9_linear_327_1916)" stroke="url(#paint10_linear_327_1916)" stroke-width="0.283704"/>
<path d="M29.8082 28.7172V30.9449H28.8322V28.7172C28.8322 27.7998 28.4929 26.9711 27.944 26.3707L27.9438 26.3705C27.4063 25.7845 26.666 25.4197 25.8505 25.4197C25.0347 25.4197 24.2946 25.7876 23.7574 26.3703L23.757 26.3707C23.208 26.9711 22.8688 27.8027 22.8688 28.7172V30.9449H21.8928V28.7172C21.8928 27.5514 22.3331 26.4912 23.0415 25.7167C23.7633 24.9289 24.7563 24.4451 25.8505 24.4451C26.9445 24.4451 27.9376 24.9316 28.6596 25.7169C29.3678 26.4883 29.8082 27.5513 29.8082 28.7172Z" fill="url(#paint11_linear_327_1916)" stroke="url(#paint12_linear_327_1916)" stroke-width="0.283704"/>
<path d="M36.7507 23.0428V33.7675C36.7507 34.2845 36.5496 34.7565 36.2298 35.1017C35.8969 35.457 35.4399 35.6757 34.935 35.6757H30.6482C30.1432 35.6757 29.6862 35.4569 29.3532 35.1015C29.0312 34.7568 28.8325 34.2851 28.8325 33.7675V29.6934H29.8085V33.7675C29.8085 34.0319 29.9068 34.2706 30.0685 34.4418L30.1716 34.3444L30.0682 34.4415C30.2156 34.5984 30.4217 34.7039 30.6482 34.7039H34.935C35.1635 34.7039 35.3675 34.6019 35.516 34.4404L35.4116 34.3444L35.5157 34.4408C35.6761 34.2676 35.7748 34.0296 35.7748 33.7675V23.0428H36.7507Z" fill="url(#paint13_linear_327_1916)" stroke="url(#paint14_linear_327_1916)" stroke-width="0.283704"/>
<path d="M21.5266 34.3415L21.6307 34.4378C21.7911 34.2647 21.8898 34.0267 21.8898 33.7646V29.6905H22.8657V33.7646C22.8657 34.2816 22.6646 34.7535 22.3448 35.0987C22.0119 35.4541 21.5549 35.6728 21.05 35.6728H16.7632C16.2582 35.6728 15.8011 35.454 15.4681 35.0984C15.1461 34.7538 14.9475 34.2821 14.9475 33.7646V30.0241H15.9235V33.7646C15.9235 34.029 16.0218 34.2677 16.1835 34.4388L16.2866 34.3415M21.5266 34.3415L21.631 34.4375C21.4825 34.599 21.2785 34.701 21.05 34.701H16.7632C16.5367 34.701 16.3306 34.5955 16.1832 34.4386L16.2866 34.3415M21.5266 34.3415C21.4018 34.4772 21.2344 34.5592 21.05 34.5592H16.7632C16.5816 34.5592 16.4114 34.4744 16.2866 34.3415M21.5266 34.3415C21.6628 34.1944 21.7479 33.9908 21.7479 33.7646V29.6905L16.0653 30.0241V33.7646C16.0653 33.9937 16.1504 34.1972 16.2866 34.3415" fill="url(#paint15_linear_327_1916)" stroke="url(#paint16_linear_327_1916)" stroke-width="0.283704"/>
<defs>
<linearGradient id="paint0_linear_327_1916" x1="1" y1="1" x2="48.2772" y2="51" gradientUnits="userSpaceOnUse">
<stop stop-color="#A0BA4F"/>
<stop offset="1" stop-color="#7A8E3B"/>
</linearGradient>
<linearGradient id="paint1_linear_327_1916" x1="25.175" y1="17.7855" x2="27.6734" y2="17.9693" gradientUnits="userSpaceOnUse">
<stop stop-color="#A0BA4F"/>
<stop offset="1" stop-color="#7A8E3B"/>
</linearGradient>
<linearGradient id="paint2_linear_327_1916" x1="25.175" y1="17.7855" x2="27.6734" y2="17.9693" gradientUnits="userSpaceOnUse">
<stop stop-color="#A0BA4F"/>
<stop offset="1" stop-color="#7A8E3B"/>
</linearGradient>
<linearGradient id="paint3_linear_327_1916" x1="18.2786" y1="27.8773" x2="20.7274" y2="28.2874" gradientUnits="userSpaceOnUse">
<stop stop-color="#A0BA4F"/>
<stop offset="1" stop-color="#7A8E3B"/>
</linearGradient>
<linearGradient id="paint4_linear_327_1916" x1="18.2786" y1="27.8773" x2="20.7274" y2="28.2874" gradientUnits="userSpaceOnUse">
<stop stop-color="#A0BA4F"/>
<stop offset="1" stop-color="#7A8E3B"/>
</linearGradient>
<linearGradient id="paint5_linear_327_1916" x1="12" y1="12.792" x2="17.8415" y2="29.7496" gradientUnits="userSpaceOnUse">
<stop stop-color="#A0BA4F"/>
<stop offset="1" stop-color="#7A8E3B"/>
</linearGradient>
<linearGradient id="paint6_linear_327_1916" x1="12" y1="12.792" x2="17.8415" y2="29.7496" gradientUnits="userSpaceOnUse">
<stop stop-color="#A0BA4F"/>
<stop offset="1" stop-color="#7A8E3B"/>
</linearGradient>
<linearGradient id="paint7_linear_327_1916" x1="20.9084" y1="17.0844" x2="24.2498" y2="24.4073" gradientUnits="userSpaceOnUse">
<stop stop-color="#A0BA4F"/>
<stop offset="1" stop-color="#7A8E3B"/>
</linearGradient>
<linearGradient id="paint8_linear_327_1916" x1="20.9084" y1="17.0844" x2="24.2498" y2="24.4073" gradientUnits="userSpaceOnUse">
<stop stop-color="#A0BA4F"/>
<stop offset="1" stop-color="#7A8E3B"/>
</linearGradient>
<linearGradient id="paint9_linear_327_1916" x1="32.1626" y1="24.4927" x2="34.6514" y2="24.7855" gradientUnits="userSpaceOnUse">
<stop stop-color="#A0BA4F"/>
<stop offset="1" stop-color="#7A8E3B"/>
</linearGradient>
<linearGradient id="paint10_linear_327_1916" x1="32.1626" y1="24.4927" x2="34.6514" y2="24.7855" gradientUnits="userSpaceOnUse">
<stop stop-color="#A0BA4F"/>
<stop offset="1" stop-color="#7A8E3B"/>
</linearGradient>
<linearGradient id="paint11_linear_327_1916" x1="21.751" y1="24.3033" x2="27.9862" y2="32.2737" gradientUnits="userSpaceOnUse">
<stop stop-color="#A0BA4F"/>
<stop offset="1" stop-color="#7A8E3B"/>
</linearGradient>
<linearGradient id="paint12_linear_327_1916" x1="21.751" y1="24.3033" x2="27.9862" y2="32.2737" gradientUnits="userSpaceOnUse">
<stop stop-color="#A0BA4F"/>
<stop offset="1" stop-color="#7A8E3B"/>
</linearGradient>
<linearGradient id="paint13_linear_327_1916" x1="28.6907" y1="22.901" x2="40.0136" y2="30.505" gradientUnits="userSpaceOnUse">
<stop stop-color="#A0BA4F"/>
<stop offset="1" stop-color="#7A8E3B"/>
</linearGradient>
<linearGradient id="paint14_linear_327_1916" x1="28.6907" y1="22.901" x2="40.0136" y2="30.505" gradientUnits="userSpaceOnUse">
<stop stop-color="#A0BA4F"/>
<stop offset="1" stop-color="#7A8E3B"/>
</linearGradient>
<linearGradient id="paint15_linear_327_1916" x1="14.8057" y1="29.5486" x2="20.4392" y2="37.3473" gradientUnits="userSpaceOnUse">
<stop stop-color="#A0BA4F"/>
<stop offset="1" stop-color="#7A8E3B"/>
</linearGradient>
<linearGradient id="paint16_linear_327_1916" x1="14.8057" y1="29.5486" x2="20.4392" y2="37.3473" gradientUnits="userSpaceOnUse">
<stop stop-color="#A0BA4F"/>
<stop offset="1" stop-color="#7A8E3B"/>
</linearGradient>
</defs>
</svg>
