<svg width="64" height="64" viewBox="0 0 64 64" fill="none" xmlns="http://www.w3.org/2000/svg">
<path d="M3.27344 53.9839V54.742C3.27344 55.1589 3.61457 55.5 4.0315 55.5H6.3057C6.72263 55.5 7.06376 55.1589 7.06376 54.742V53.9839" stroke="url(#paint0_linear_626_11387)" stroke-width="1.4" stroke-linecap="square" stroke-linejoin="round"/>
<path d="M48 50.9517H1" stroke="url(#paint1_linear_626_11387)" stroke-width="1.4" stroke-linecap="square" stroke-linejoin="round"/>
<path d="M41.9355 53.9839V54.742C41.9355 55.1589 42.2767 55.5 42.6936 55.5H44.9678C45.3847 55.5 45.7259 55.1589 45.7259 54.742V53.9839" stroke="url(#paint2_linear_626_11387)" stroke-width="1.4" stroke-linecap="square" stroke-linejoin="round"/>
<path d="M2.51758 36.5483V50.9516" stroke="url(#paint3_linear_626_11387)" stroke-width="1.4" stroke-linecap="square" stroke-linejoin="round"/>
<path d="M46.4824 36.5483V50.9516" stroke="url(#paint4_linear_626_11387)" stroke-width="1.4" stroke-linecap="square" stroke-linejoin="round"/>
<path d="M1 33.5161H48" stroke="url(#paint5_linear_626_11387)" stroke-width="1.4" stroke-linecap="square" stroke-linejoin="round"/>
<path d="M7.82227 41.8549H46.4836" stroke="url(#paint6_linear_626_11387)" stroke-width="1.4" stroke-linecap="square" stroke-linejoin="round"/>
<path d="M24.5 36.5483V50.9516" stroke="url(#paint7_linear_626_11387)" stroke-width="1.4" stroke-linecap="square" stroke-linejoin="round"/>
<path d="M13.8872 47.9195C14.7246 47.9195 15.4034 47.2407 15.4034 46.4033C15.4034 45.566 14.7246 44.8872 13.8872 44.8872C13.0499 44.8872 12.3711 45.566 12.3711 46.4033C12.3711 47.2407 13.0499 47.9195 13.8872 47.9195Z" stroke="url(#paint8_linear_626_11387)" stroke-width="1.4" stroke-linecap="square" stroke-linejoin="round"/>
<path d="M35.1118 47.9195C35.9492 47.9195 36.628 47.2407 36.628 46.4033C36.628 45.566 35.9492 44.8872 35.1118 44.8872C34.2745 44.8872 33.5957 45.566 33.5957 46.4033C33.5957 47.2407 34.2745 47.9195 35.1118 47.9195Z" stroke="url(#paint9_linear_626_11387)" stroke-width="1.4" stroke-linecap="square" stroke-linejoin="round"/>
<path d="M39.6588 8.5H9.33619C8.91752 8.5 8.57812 8.8394 8.57812 9.25806V27.4516C8.57812 27.8703 8.91752 28.2097 9.33619 28.2097H39.6588C40.0774 28.2097 40.4168 27.8703 40.4168 27.4516V9.25806C40.4168 8.8394 40.0774 8.5 39.6588 8.5Z" stroke="url(#paint10_linear_626_11387)" stroke-width="1.4" stroke-linecap="square" stroke-linejoin="round"/>
<path d="M19.1895 28.2096V30.4838" stroke="url(#paint11_linear_626_11387)" stroke-width="1.4" stroke-linecap="square" stroke-linejoin="round"/>
<path d="M29.8027 28.2096V30.4838" stroke="url(#paint12_linear_626_11387)" stroke-width="1.4" stroke-linecap="square" stroke-linejoin="round"/>
<defs>
<linearGradient id="paint0_linear_626_11387" x1="3.27344" y1="53.9839" x2="4.22362" y2="56.4961" gradientUnits="userSpaceOnUse">
<stop stop-color="#A0BA4F"/>
<stop offset="1" stop-color="#7A8E3B"/>
</linearGradient>
<linearGradient id="paint1_linear_626_11387" x1="1" y1="50.9517" x2="1.03809" y2="52.8449" gradientUnits="userSpaceOnUse">
<stop stop-color="#A0BA4F"/>
<stop offset="1" stop-color="#7A8E3B"/>
</linearGradient>
<linearGradient id="paint2_linear_626_11387" x1="41.9355" y1="53.9839" x2="42.8857" y2="56.4961" gradientUnits="userSpaceOnUse">
<stop stop-color="#A0BA4F"/>
<stop offset="1" stop-color="#7A8E3B"/>
</linearGradient>
<linearGradient id="paint3_linear_626_11387" x1="2.51758" y1="36.5483" x2="4.50997" y2="36.6946" gradientUnits="userSpaceOnUse">
<stop stop-color="#A0BA4F"/>
<stop offset="1" stop-color="#7A8E3B"/>
</linearGradient>
<linearGradient id="paint4_linear_626_11387" x1="46.4824" y1="36.5483" x2="48.4748" y2="36.6946" gradientUnits="userSpaceOnUse">
<stop stop-color="#A0BA4F"/>
<stop offset="1" stop-color="#7A8E3B"/>
</linearGradient>
<linearGradient id="paint5_linear_626_11387" x1="1" y1="33.5161" x2="1.03809" y2="35.4094" gradientUnits="userSpaceOnUse">
<stop stop-color="#A0BA4F"/>
<stop offset="1" stop-color="#7A8E3B"/>
</linearGradient>
<linearGradient id="paint6_linear_626_11387" x1="7.82227" y1="41.8549" x2="7.86856" y2="43.7478" gradientUnits="userSpaceOnUse">
<stop stop-color="#A0BA4F"/>
<stop offset="1" stop-color="#7A8E3B"/>
</linearGradient>
<linearGradient id="paint7_linear_626_11387" x1="24.5" y1="36.5483" x2="26.4924" y2="36.6946" gradientUnits="userSpaceOnUse">
<stop stop-color="#A0BA4F"/>
<stop offset="1" stop-color="#7A8E3B"/>
</linearGradient>
<linearGradient id="paint8_linear_626_11387" x1="12.3711" y1="44.8872" x2="15.2382" y2="47.9195" gradientUnits="userSpaceOnUse">
<stop stop-color="#A0BA4F"/>
<stop offset="1" stop-color="#7A8E3B"/>
</linearGradient>
<linearGradient id="paint9_linear_626_11387" x1="33.5957" y1="44.8872" x2="36.4628" y2="47.9195" gradientUnits="userSpaceOnUse">
<stop stop-color="#A0BA4F"/>
<stop offset="1" stop-color="#7A8E3B"/>
</linearGradient>
<linearGradient id="paint10_linear_626_11387" x1="8.57812" y1="8.5" x2="24.8533" y2="36.3048" gradientUnits="userSpaceOnUse">
<stop stop-color="#A0BA4F"/>
<stop offset="1" stop-color="#7A8E3B"/>
</linearGradient>
<linearGradient id="paint11_linear_626_11387" x1="19.1895" y1="28.2096" x2="20.8364" y2="28.9755" gradientUnits="userSpaceOnUse">
<stop stop-color="#A0BA4F"/>
<stop offset="1" stop-color="#7A8E3B"/>
</linearGradient>
<linearGradient id="paint12_linear_626_11387" x1="29.8027" y1="28.2096" x2="31.4497" y2="28.9755" gradientUnits="userSpaceOnUse">
<stop stop-color="#A0BA4F"/>
<stop offset="1" stop-color="#7A8E3B"/>
</linearGradient>
</defs>
</svg>
