<svg width="64" height="64" viewBox="0 0 64 64" fill="none" xmlns="http://www.w3.org/2000/svg">
<path d="M52 57.5C52 54.46 54.46 52 57.5 52C60.54 52 63 54.46 63 57.5C63 60.54 60.54 63 57.5 63" fill="white"/>
<path d="M52 57.5C52 54.46 54.46 52 57.5 52C60.54 52 63 54.46 63 57.5C63 60.54 60.54 63 57.5 63" stroke="url(#paint0_linear_470_2346)" stroke-width="1.4" stroke-linecap="round" stroke-linejoin="round"/>
<path d="M52 6.5C52 3.46 54.46 1 57.5 1C60.54 1 63 3.46 63 6.5" fill="white"/>
<path d="M52 6.5C52 3.46 54.46 1 57.5 1C60.54 1 63 3.46 63 6.5" stroke="url(#paint1_linear_470_2346)" stroke-width="1.4" stroke-linecap="round" stroke-linejoin="round"/>
<path d="M63 6V57" stroke="url(#paint2_linear_470_2346)" stroke-width="1.4" stroke-linecap="round" stroke-linejoin="round"/>
<path d="M58 63H1V7H52V57" fill="white"/>
<path d="M58 63H1V7H52V57" stroke="url(#paint3_linear_470_2346)" stroke-width="1.4" stroke-linecap="round" stroke-linejoin="round"/>
<path d="M39 51H46V24H27V31H7V57H27V51H35" fill="white"/>
<path d="M39 51H46V24H27V31H7V57H27V51H35" stroke="url(#paint4_linear_470_2346)" stroke-width="1.4" stroke-linecap="round" stroke-linejoin="round"/>
<path d="M27 43V51" stroke="url(#paint5_linear_470_2346)" stroke-width="1.4" stroke-linecap="round" stroke-linejoin="round"/>
<path d="M32 38H45" stroke="url(#paint6_linear_470_2346)" stroke-width="1.4" stroke-linecap="round" stroke-linejoin="round"/>
<path d="M8 44H22" stroke="url(#paint7_linear_470_2346)" stroke-width="1.4" stroke-linecap="round" stroke-linejoin="round"/>
<path d="M27 31V39" stroke="url(#paint8_linear_470_2346)" stroke-width="1.4" stroke-linecap="round" stroke-linejoin="round"/>
<path d="M49 18H5" stroke="url(#paint9_linear_470_2346)" stroke-width="1.4" stroke-linecap="round" stroke-linejoin="round"/>
<path d="M9 13V17" stroke="url(#paint10_linear_470_2346)" stroke-width="1.4" stroke-linecap="round" stroke-linejoin="round"/>
<path d="M15 15V17" stroke="url(#paint11_linear_470_2346)" stroke-width="1.4" stroke-linecap="round" stroke-linejoin="round"/>
<path d="M21 13V17" stroke="url(#paint12_linear_470_2346)" stroke-width="1.4" stroke-linecap="round" stroke-linejoin="round"/>
<path d="M27 15V17" stroke="url(#paint13_linear_470_2346)" stroke-width="1.4" stroke-linecap="round" stroke-linejoin="round"/>
<path d="M39 15V17" stroke="url(#paint14_linear_470_2346)" stroke-width="1.4" stroke-linecap="round" stroke-linejoin="round"/>
<path d="M33 13V17" stroke="url(#paint15_linear_470_2346)" stroke-width="1.4" stroke-linecap="round" stroke-linejoin="round"/>
<path d="M45 13V17" stroke="url(#paint16_linear_470_2346)" stroke-width="1.4" stroke-linecap="round" stroke-linejoin="round"/>
<defs>
<linearGradient id="paint0_linear_470_2346" x1="52" y1="52" x2="62.401" y2="63" gradientUnits="userSpaceOnUse">
<stop stop-color="#A0BA4F"/>
<stop offset="1" stop-color="#7A8E3B"/>
</linearGradient>
<linearGradient id="paint1_linear_470_2346" x1="52" y1="1" x2="56.0253" y2="9.51425" gradientUnits="userSpaceOnUse">
<stop stop-color="#A0BA4F"/>
<stop offset="1" stop-color="#7A8E3B"/>
</linearGradient>
<linearGradient id="paint2_linear_470_2346" x1="63" y1="6" x2="65.0023" y2="6.04152" gradientUnits="userSpaceOnUse">
<stop stop-color="#A0BA4F"/>
<stop offset="1" stop-color="#7A8E3B"/>
</linearGradient>
<linearGradient id="paint3_linear_470_2346" x1="1" y1="7" x2="53.8898" y2="63.9347" gradientUnits="userSpaceOnUse">
<stop stop-color="#A0BA4F"/>
<stop offset="1" stop-color="#7A8E3B"/>
</linearGradient>
<linearGradient id="paint4_linear_470_2346" x1="7" y1="24" x2="37.4903" y2="62.1092" gradientUnits="userSpaceOnUse">
<stop stop-color="#A0BA4F"/>
<stop offset="1" stop-color="#7A8E3B"/>
</linearGradient>
<linearGradient id="paint5_linear_470_2346" x1="27" y1="43" x2="28.9687" y2="43.2603" gradientUnits="userSpaceOnUse">
<stop stop-color="#A0BA4F"/>
<stop offset="1" stop-color="#7A8E3B"/>
</linearGradient>
<linearGradient id="paint6_linear_470_2346" x1="32" y1="38" x2="32.137" y2="39.8841" gradientUnits="userSpaceOnUse">
<stop stop-color="#A0BA4F"/>
<stop offset="1" stop-color="#7A8E3B"/>
</linearGradient>
<linearGradient id="paint7_linear_470_2346" x1="8" y1="44" x2="8.12734" y2="45.8855" gradientUnits="userSpaceOnUse">
<stop stop-color="#A0BA4F"/>
<stop offset="1" stop-color="#7A8E3B"/>
</linearGradient>
<linearGradient id="paint8_linear_470_2346" x1="27" y1="31" x2="28.9687" y2="31.2603" gradientUnits="userSpaceOnUse">
<stop stop-color="#A0BA4F"/>
<stop offset="1" stop-color="#7A8E3B"/>
</linearGradient>
<linearGradient id="paint9_linear_470_2346" x1="5" y1="18" x2="5.04068" y2="19.8932" gradientUnits="userSpaceOnUse">
<stop stop-color="#A0BA4F"/>
<stop offset="1" stop-color="#7A8E3B"/>
</linearGradient>
<linearGradient id="paint10_linear_470_2346" x1="9" y1="13" x2="10.8723" y2="13.495" gradientUnits="userSpaceOnUse">
<stop stop-color="#A0BA4F"/>
<stop offset="1" stop-color="#7A8E3B"/>
</linearGradient>
<linearGradient id="paint11_linear_470_2346" x1="15" y1="15" x2="16.5654" y2="15.8278" gradientUnits="userSpaceOnUse">
<stop stop-color="#A0BA4F"/>
<stop offset="1" stop-color="#7A8E3B"/>
</linearGradient>
<linearGradient id="paint12_linear_470_2346" x1="21" y1="13" x2="22.8723" y2="13.495" gradientUnits="userSpaceOnUse">
<stop stop-color="#A0BA4F"/>
<stop offset="1" stop-color="#7A8E3B"/>
</linearGradient>
<linearGradient id="paint13_linear_470_2346" x1="27" y1="15" x2="28.5654" y2="15.8278" gradientUnits="userSpaceOnUse">
<stop stop-color="#A0BA4F"/>
<stop offset="1" stop-color="#7A8E3B"/>
</linearGradient>
<linearGradient id="paint14_linear_470_2346" x1="39" y1="15" x2="40.5654" y2="15.8278" gradientUnits="userSpaceOnUse">
<stop stop-color="#A0BA4F"/>
<stop offset="1" stop-color="#7A8E3B"/>
</linearGradient>
<linearGradient id="paint15_linear_470_2346" x1="33" y1="13" x2="34.8723" y2="13.495" gradientUnits="userSpaceOnUse">
<stop stop-color="#A0BA4F"/>
<stop offset="1" stop-color="#7A8E3B"/>
</linearGradient>
<linearGradient id="paint16_linear_470_2346" x1="45" y1="13" x2="46.8723" y2="13.495" gradientUnits="userSpaceOnUse">
<stop stop-color="#A0BA4F"/>
<stop offset="1" stop-color="#7A8E3B"/>
</linearGradient>
</defs>
</svg>
